<?xml version="1.0" standalone="no"?>
<!DOCTYPE svg PUBLIC "-//W3C//DTD SVG 20010904//EN"
 "http://www.w3.org/TR/2001/REC-SVG-20010904/DTD/svg10.dtd">
<svg version="1.0" xmlns="http://www.w3.org/2000/svg"
 width="1000.000000pt" height="563.000000pt" viewBox="0 0 1000.000000 563.000000"
 preserveAspectRatio="xMidYMid meet">

<g transform="translate(0.000000,563.000000) scale(0.100000,-0.100000)"
fill="#000000" stroke="none">
<path d="M3761 5618 c4 -32 -1 -39 -22 -33 -19 6 -21 4 -16 -14 4 -17 1 -21
-19 -21 -15 0 -24 -6 -24 -15 0 -9 -11 -21 -25 -27 -14 -6 -25 -17 -25 -25 0
-13 -12 -17 -37 -14 -7 1 -13 -5 -13 -13 0 -9 -9 -20 -20 -26 -11 -6 -20 -17
-20 -24 0 -8 -13 -19 -29 -25 -15 -7 -38 -25 -50 -41 -13 -18 -27 -27 -36 -24
-10 4 -14 2 -10 -7 5 -14 -47 -79 -63 -79 -5 0 -19 -11 -32 -25 -13 -14 -33
-25 -46 -25 -12 0 -27 -7 -34 -15 -9 -10 -9 -15 -1 -15 8 0 8 -6 -1 -20 -7
-11 -21 -20 -31 -20 -10 0 -20 -7 -23 -15 -4 -10 -13 -13 -25 -10 -21 7 -26
-10 -6 -19 6 -3 2 -3 -10 0 -20 4 -23 1 -23 -21 0 -19 -5 -25 -17 -23 -12 2
-17 -3 -15 -13 1 -8 -10 -22 -24 -29 -14 -8 -30 -22 -35 -31 -5 -10 -23 -28
-41 -40 -29 -21 -31 -22 -24 -3 5 12 4 15 -2 9 -6 -5 -12 -19 -14 -30 -2 -13
-11 -20 -26 -19 -16 0 -22 -5 -22 -22 0 -26 -16 -41 -23 -22 -3 9 -10 6 -22
-9 -9 -13 -23 -23 -31 -23 -8 0 -29 -16 -47 -35 -17 -19 -38 -35 -44 -35 -7 0
-13 -7 -13 -15 0 -8 -5 -15 -12 -15 -6 0 -32 -22 -57 -49 -25 -26 -56 -53 -68
-60 -13 -6 -23 -18 -23 -26 0 -8 -7 -15 -15 -15 -9 0 -18 -7 -21 -15 -4 -8
-12 -15 -18 -15 -7 0 -31 -19 -54 -42 -46 -48 -105 -88 -130 -88 -16 0 -82
-66 -82 -82 0 -4 -7 -8 -15 -8 -8 0 -22 -11 -30 -24 -9 -13 -29 -29 -45 -36
-16 -6 -31 -18 -34 -26 -3 -8 -12 -14 -21 -14 -8 0 -15 -5 -15 -11 0 -16 -79
-89 -96 -89 -8 0 -20 -13 -25 -30 -6 -16 -16 -30 -23 -30 -7 0 -23 -11 -35
-24 -13 -13 -34 -27 -48 -31 -30 -7 -93 -55 -93 -70 0 -6 -14 -19 -31 -29 -17
-10 -47 -34 -66 -52 -19 -19 -37 -34 -40 -34 -8 0 -63 -58 -63 -67 0 -5 -16
-15 -35 -23 -19 -8 -42 -24 -50 -36 -7 -12 -36 -32 -62 -45 -54 -26 -75 -43
-92 -76 -6 -13 -18 -23 -27 -23 -16 0 -94 -75 -94 -90 0 -6 -7 -10 -15 -10 -9
0 -18 -7 -21 -15 -4 -8 -14 -15 -23 -15 -9 -1 -29 -19 -46 -40 -16 -21 -36
-39 -42 -40 -7 0 -13 -4 -13 -10 0 -5 -4 -10 -10 -10 -5 0 -42 -31 -81 -70
-40 -38 -75 -70 -78 -70 -11 -1 -71 -60 -71 -70 0 -5 -4 -10 -10 -10 -11 0
-26 -12 -89 -72 -22 -21 -42 -38 -45 -38 -8 0 -56 -41 -75 -64 -23 -27 -44
-47 -86 -81 -21 -16 -46 -38 -56 -47 -11 -10 -24 -18 -29 -18 -6 0 -10 -7 -10
-15 0 -8 -9 -19 -20 -25 -11 -6 -20 -17 -20 -25 0 -8 -7 -15 -16 -15 -9 0 -32
-16 -50 -34 -19 -19 -44 -38 -54 -41 -11 -4 -20 -10 -20 -15 0 -13 -197 -180
-212 -180 -4 0 -8 -540 -8 -1200 l0 -1200 5000 0 5000 0 0 2815 0 2815 -3120
0 c-2491 0 -3121 -3 -3119 -12z m2465 -549 c117 -46 173 -72 118 -55 -17 5
-51 -13 -141 -74 -66 -44 -126 -86 -133 -95 -7 -8 -16 -12 -21 -9 -5 3 -9 1
-9 -5 0 -5 -9 -13 -20 -16 -11 -3 -20 -14 -20 -22 0 -9 -2 -14 -6 -11 -8 8 55
309 68 325 16 19 23 18 164 -38z m44 15 l25 -15 -35 6 c-39 6 -66 25 -34 25
10 -1 30 -8 44 -16z m174 -63 c44 -15 74 -31 68 -35 -10 -6 -172 50 -172 60 0
9 30 2 104 -25z m1493 -133 c207 -83 233 -96 233 -115 0 -13 -6 -23 -12 -23
-7 0 -115 41 -240 92 -204 83 -228 95 -228 115 0 13 3 23 8 23 4 0 112 -41
239 -92z m-1320 56 c18 -8 33 -16 33 -19 0 -5 -102 34 -110 42 -6 7 33 -5 77
-23z m1098 -105 c72 -29 134 -55 138 -59 4 -4 4 -16 0 -28 -8 -20 -11 -19
-128 29 -66 27 -130 53 -142 58 -15 7 -20 16 -16 30 3 12 8 21 12 21 3 0 65
-23 136 -51z m-245 -184 c283 -114 521 -209 528 -212 14 -6 15 -13 2 -33 -7
-12 -15 -11 -52 7 -24 12 -86 38 -138 58 -306 118 -353 139 -342 150 4 4 -2 5
-13 1 -11 -4 -16 -4 -12 0 4 4 -111 51 -255 105 -143 54 -264 102 -267 105 -3
4 5 3 19 -1 42 -13 47 -12 13 3 -34 15 -46 38 -15 29 9 -2 249 -98 532 -212z
m566 124 c68 -28 124 -56 124 -63 -1 -38 -17 -36 -141 15 -68 28 -125 52 -126
53 -4 3 9 46 14 46 2 0 60 -23 129 -51z m-140 -83 c182 -73 191 -78 186 -101
-2 -14 -5 -25 -7 -25 -4 0 -468 190 -471 193 -2 2 -1 13 2 24 6 22 6 22 53 4
25 -11 132 -53 237 -95z m46 52 c41 -16 58 -28 58 -41 0 -29 -23 -30 -84 -3
-51 23 -67 42 -49 59 9 10 11 9 75 -15z m-473 -19 c30 -11 43 -41 22 -53 -17
-11 -73 15 -67 31 3 8 6 19 6 24 0 11 0 11 39 -2z m662 -59 c16 -9 16 -50 0
-50 -21 0 -126 50 -125 59 4 42 2 42 55 20 29 -11 60 -24 70 -29z m-383 -55
c94 -38 172 -73 172 -79 -1 -39 -18 -35 -217 45 -187 76 -200 83 -195 105 4
22 6 23 36 10 17 -7 109 -43 204 -81z m204 -12 c103 -41 118 -49 118 -70 0
-13 -6 -23 -12 -23 -7 1 -65 22 -128 48 -94 38 -116 51 -118 70 -2 13 2 22 10
22 7 0 66 -21 130 -47z m178 -24 c0 -18 -2 -20 -15 -9 -13 11 -13 15 -3 21 18
12 18 12 18 -12z m-980 -5 c39 -16 47 -28 32 -50 -12 -19 -92 21 -92 46 0 24
8 25 60 4z m835 -54 c35 -15 45 -24 41 -36 -3 -9 -6 -20 -6 -24 0 -5 -22 0
-50 12 -51 21 -54 25 -44 52 8 20 3 20 59 -4z m135 -5 c0 -8 -4 -15 -9 -15
-13 0 -22 16 -14 24 11 11 23 6 23 -9z m-30 -56 c0 -5 -7 -9 -15 -9 -8 0 -15
7 -15 15 0 9 6 12 15 9 8 -4 15 -10 15 -15z m-2983 -25 c3 -10 -7 -29 -29 -52
-45 -46 -56 -69 -68 -133 -16 -81 2 -169 56 -277 46 -91 50 -110 20 -99 -25
10 -96 167 -112 250 -25 121 1 230 69 297 34 33 55 38 64 14z m2949 -114 c-26
-101 -34 -103 -15 -4 11 56 16 87 18 109 1 5 5 5 11 -1 6 -6 1 -42 -14 -104z
m-1497 71 c7 -5 9 -11 4 -14 -5 -3 -10 -27 -12 -53 -1 -26 -5 -52 -8 -57 -4
-6 -1 -7 7 -2 10 6 12 4 7 -8 -4 -10 -1 -17 6 -18 9 0 9 -2 0 -5 -6 -3 -57 9
-113 27 -78 24 -104 28 -110 19 -5 -9 -16 -10 -35 -3 l-27 9 50 27 c28 15 54
27 59 26 20 -3 34 2 28 10 -3 5 0 13 6 17 8 4 9 3 5 -4 -11 -18 5 -14 49 12
44 26 63 30 84 17z m1412 -11 c23 -13 27 -52 4 -44 -13 5 -13 9 -3 22 7 9 8
13 3 10 -6 -4 -19 0 -30 8 -22 16 -3 19 26 4z m-1919 -55 c-3 -36 -1 -55 6
-55 6 0 9 -6 6 -14 -9 -25 14 -27 55 -6 46 23 55 25 45 9 -5 -9 1 -10 21 -5
22 6 26 4 22 -8 -4 -9 -2 -16 3 -16 6 0 10 -4 10 -10 0 -5 -7 -10 -15 -10 -8
0 -15 -4 -15 -10 0 -5 -7 -10 -15 -10 -8 0 -15 -6 -15 -14 0 -25 -88 10 -92
36 -2 16 -19 25 -78 42 -41 12 -85 26 -97 30 -17 5 -23 3 -23 -8 0 -12 -5 -14
-25 -6 -20 8 -25 6 -25 -6 0 -12 -7 -14 -30 -9 -19 4 -30 3 -30 -4 0 -6 -7
-11 -16 -11 -10 0 -14 -6 -11 -14 4 -10 1 -13 -9 -9 -10 4 -14 -3 -14 -23 0
-27 -1 -27 -15 -8 -13 18 -14 17 -15 -18 0 -29 -3 -36 -15 -32 -11 5 -15 -1
-15 -26 0 -18 -4 -29 -10 -25 -5 3 -10 -1 -10 -10 0 -8 -7 -18 -15 -21 -18 -7
-20 -65 -4 -81 9 -9 8 -16 -5 -28 -15 -15 -16 -11 -16 59 0 115 -17 91 -19
-26 -1 -57 -3 -125 -5 -153 -2 -27 -4 -70 -4 -94 -2 -36 -5 -42 -19 -37 -15 5
-15 4 1 -9 22 -17 17 -29 -8 -19 -9 3 -17 16 -17 28 l-2 21 -4 -21 c-4 -19 -7
-20 -28 -10 -14 6 -25 19 -25 29 0 9 -7 17 -15 17 -8 0 -15 9 -15 19 0 10 -7
21 -15 25 -8 3 -15 12 -15 20 0 8 -4 16 -9 18 -8 2 -15 147 -12 214 1 19 97
85 251 174 193 111 302 168 270 140 -21 -18 -22 -21 -5 -15 11 4 31 9 44 11
13 3 40 13 60 24 55 29 58 27 53 -35z m1978 21 c0 -3 -4 -8 -10 -11 -5 -3 -10
-1 -10 4 0 6 5 11 10 11 6 0 10 -2 10 -4z m-2841 -30 c10 -12 5 -21 -23 -47
-22 -19 -38 -45 -42 -65 -8 -41 20 -158 52 -222 16 -32 20 -50 13 -57 -25 -25
-95 110 -106 207 -7 61 12 131 47 168 31 34 42 36 59 16z m2283 -12 c19 -10
25 -19 21 -34 -6 -24 -2 -24 -56 -1 -38 16 -45 23 -40 41 6 22 22 21 75 -6z
m-697 -26 c-3 -7 -39 -34 -80 -60 -63 -40 -75 -44 -75 -29 0 13 23 31 78 60
89 47 83 44 77 29z m1155 -15 c40 -18 46 -27 32 -51 -7 -10 -18 -9 -55 7 -37
16 -45 23 -40 40 6 25 12 26 63 4z m-1650 -3 c0 -5 -7 -7 -15 -4 -8 4 -15 8
-15 10 0 2 7 4 15 4 8 0 15 -4 15 -10z m744 -5 c-10 -8 -23 -15 -28 -15 -6 0
-1 7 10 15 10 8 23 15 28 15 6 0 1 -7 -10 -15z m1405 -29 c-3 -3 -11 5 -18 17
-13 21 -12 21 5 5 10 -10 16 -20 13 -22z m-2179 14 c0 -5 -4 -10 -9 -10 -6 0
-13 5 -16 10 -3 6 1 10 9 10 9 0 16 -4 16 -10z m588 -12 c-3 -12 -82 -68 -138
-98 -19 -10 -21 -9 -18 5 1 10 37 37 78 61 87 50 81 47 78 32z m-1568 -32 c9
-12 7 -21 -10 -44 l-22 -30 21 -67 c12 -37 20 -70 17 -72 -13 -13 -39 11 -58
53 -24 55 -21 123 7 154 22 24 29 25 45 6z m540 -22 c0 -8 -4 -12 -10 -9 -5 3
-10 10 -10 16 0 5 5 9 10 9 6 0 10 -7 10 -16z m1082 -13 c-5 -3 -8 -14 -7 -23
2 -11 -21 -32 -66 -62 -38 -25 -71 -46 -75 -46 -3 0 -4 14 -2 32 3 28 12 38
73 74 39 23 74 39 79 36 4 -2 4 -7 -2 -11z m871 -42 c29 -9 37 -17 37 -36 0
-27 -7 -28 -60 -7 -32 13 -40 21 -40 41 0 16 4 23 13 19 6 -2 29 -10 50 -17z
m-813 -39 c-8 -5 -10 -10 -4 -10 31 0 2 -37 -63 -81 l-73 -50 0 35 c0 32 5 37
68 74 37 22 72 41 77 41 6 0 3 -4 -5 -9z m-1250 -26 c0 -8 -4 -12 -10 -9 -5 3
-10 10 -10 16 0 5 5 9 10 9 6 0 10 -7 10 -16z m310 -14 c0 -5 -4 -10 -10 -10
-5 0 -10 5 -10 10 0 6 5 10 10 10 6 0 10 -4 10 -10z m1986 -50 c-8 -61 -15
-80 -28 -80 -6 0 -8 18 -4 48 10 64 15 82 28 82 7 0 8 -17 4 -50z m-39 18 c-3
-8 -6 -5 -6 6 -1 11 2 17 5 13 3 -3 4 -12 1 -19z m-984 -15 c-4 -10 -2 -14 4
-10 6 4 14 0 17 -9 3 -8 2 -12 -4 -9 -6 3 -10 2 -10 -3 0 -5 -31 -30 -70 -56
l-70 -46 0 34 c0 31 6 37 68 75 37 22 68 41 69 41 1 0 -1 -7 -4 -17z m-1243
-14 c0 -5 -4 -9 -10 -9 -5 0 -10 7 -10 16 0 8 5 12 10 9 6 -3 10 -10 10 -16z
m2146 6 c-11 -8 -25 -15 -30 -15 -6 1 0 7 14 15 32 19 40 18 16 0z m-1331 -35
c3 -5 1 -10 -4 -10 -6 0 -11 5 -11 10 0 6 2 10 4 10 3 0 8 -4 11 -10z m509 -5
c-4 -8 -8 -15 -10 -15 -2 0 -4 7 -4 15 0 8 4 15 10 15 5 0 7 -7 4 -15z m896 0
c0 -8 -2 -15 -4 -15 -2 0 -6 7 -10 15 -3 8 -1 15 4 15 6 0 10 -7 10 -15z
m-1653 -17 c-3 -8 -6 -5 -6 6 -1 11 2 17 5 13 3 -3 4 -12 1 -19z m1158 2 c-3
-5 -12 -10 -18 -10 -7 0 -6 4 3 10 19 12 23 12 15 0z m269 -5 c27 -12 36 -21
36 -40 l0 -24 -45 16 c-49 16 -60 26 -51 48 7 19 15 19 60 0z m-708 -21 c0
-19 -10 -33 -38 -52 -21 -13 -38 -29 -38 -33 0 -15 31 -10 58 9 48 33 57 33
57 -2 0 -17 -4 -34 -10 -38 -5 -4 6 -7 25 -6 40 1 89 -20 71 -31 -6 -4 8 -16
35 -29 25 -12 42 -26 39 -32 -3 -5 4 -14 16 -21 16 -8 18 -13 9 -19 -10 -6 -5
-13 17 -27 16 -10 28 -24 26 -30 -3 -7 2 -13 10 -13 8 0 17 -7 21 -15 3 -10
-1 -15 -13 -15 -10 0 -24 -7 -31 -15 -7 -9 -8 -15 -2 -15 5 0 8 -9 5 -20 -5
-19 -3 -20 21 -9 19 9 30 9 38 1 8 -8 2 -19 -23 -41 -22 -21 -28 -31 -18 -31
9 0 24 -16 35 -35 15 -29 24 -35 50 -35 34 0 55 -27 32 -41 -10 -6 -9 -14 5
-38 11 -18 17 -50 17 -85 0 -50 3 -58 24 -68 14 -6 27 -17 30 -25 9 -21 -21
-27 -57 -11 -17 8 -58 25 -90 38 -59 23 -78 43 -60 61 6 6 25 1 51 -11 24 -12
47 -18 52 -15 16 10 12 78 -6 103 -13 18 -19 20 -36 11 -14 -8 -23 -8 -31 0
-6 6 -18 11 -26 11 -13 -1 -13 -3 2 -11 15 -9 9 -16 -43 -51 -33 -22 -65 -48
-70 -59 -6 -10 -19 -19 -29 -19 -10 0 -26 -9 -35 -19 -10 -11 -31 -24 -47 -30
-25 -9 -29 -7 -29 8 0 13 -16 25 -51 39 -28 12 -48 26 -45 31 6 9 63 -16 91
-39 18 -15 85 7 85 27 0 8 13 22 30 31 29 17 30 19 30 92 0 64 -3 78 -21 93
-14 12 -18 24 -14 38 5 14 0 27 -14 40 -12 11 -21 26 -21 34 0 8 -7 15 -15 15
-8 0 -15 8 -15 19 0 10 -10 25 -22 34 -21 13 -22 18 -10 37 35 58 15 78 -39
39 l-29 -20 0 21 c0 11 7 23 15 26 22 9 19 19 -9 32 -18 8 -28 7 -43 -3 -29
-22 -33 -18 -33 34 0 31 5 53 15 61 8 7 15 18 14 24 0 7 -2 6 -6 -2 -2 -6 -9
-9 -14 -6 -6 3 -16 0 -24 -6 -13 -11 -15 -7 -15 23 0 34 4 39 68 76 37 23 69
41 73 41 3 0 5 -12 5 -26z m-921 6 c3 -5 1 -10 -4 -10 -6 0 -11 5 -11 10 0 6
2 10 4 10 3 0 8 -4 11 -10z m-425 -30 c0 -5 -5 -10 -11 -10 -5 0 -7 5 -4 10 3
6 8 10 11 10 2 0 4 -4 4 -10z m170 0 c0 -5 -4 -10 -10 -10 -5 0 -10 5 -10 10
0 6 5 10 10 10 6 0 10 -4 10 -10z m735 -10 c3 -5 1 -10 -4 -10 -6 0 -11 5 -11
10 0 6 2 10 4 10 3 0 8 -4 11 -10z m1138 -11 c28 -10 37 -18 37 -36 0 -27 -7
-28 -60 -7 -32 13 -40 21 -40 41 0 16 5 23 13 20 6 -2 29 -10 50 -18z m-2069
-10 c-3 -5 -10 -7 -15 -3 -5 3 -7 10 -3 15 3 5 10 7 15 3 5 -3 7 -10 3 -15z
m966 11 c0 -5 -4 -10 -10 -10 -5 0 -10 5 -10 10 0 6 5 10 10 10 6 0 10 -4 10
-10z m740 6 c0 -2 -7 -7 -16 -10 -8 -3 -12 -2 -9 4 6 10 25 14 25 6z m-1735
-26 c3 -5 1 -10 -4 -10 -6 0 -11 5 -11 10 0 6 2 10 4 10 3 0 8 -4 11 -10z m22
-42 c-3 -7 -5 -2 -5 12 0 14 2 19 5 13 2 -7 2 -19 0 -25z m-826 -9 c244 -104
774 -319 786 -319 8 0 17 -9 20 -20 3 -11 20 -24 42 -31 l36 -12 -33 -9 c-24
-7 -32 -13 -28 -24 3 -9 6 -27 6 -40 0 -13 6 -24 13 -24 18 0 52 -38 43 -47
-3 -4 -11 -2 -17 4 -8 8 -20 5 -45 -11 -43 -27 -43 -40 2 -33 19 3 42 3 50 0
19 -7 18 -33 -1 -33 -8 0 -15 5 -15 12 0 6 -2 9 -5 6 -12 -11 21 -58 42 -58
12 0 23 -4 25 -8 2 -5 23 -20 48 -35 41 -24 34 -40 -8 -18 -52 28 -211 85
-317 114 -22 6 -44 14 -49 19 -6 4 -18 8 -28 8 -10 0 -18 7 -18 15 0 21 -49
19 -74 -3 -12 -10 -66 -47 -121 -82 -55 -35 -110 -73 -122 -84 -23 -19 -23
-19 -65 2 -47 22 -99 26 -138 10 -58 -24 -75 -35 -89 -60 -14 -24 -14 -28 3
-47 20 -22 46 -28 46 -11 0 6 -4 10 -10 10 -5 0 -10 9 -10 19 0 46 138 89 191
60 20 -10 19 -12 -18 -44 -21 -19 -51 -39 -68 -46 -16 -7 -32 -15 -35 -18 -3
-4 -17 -12 -32 -20 -26 -14 -31 -12 -83 24 -62 42 -63 34 13 110 36 36 94 55
162 55 50 0 107 25 115 50 3 10 19 22 35 25 17 4 30 13 30 20 0 8 9 19 19 25
27 14 31 13 25 -5 -9 -22 24 -8 37 16 10 20 69 28 69 9 0 -5 5 -10 10 -10 6 0
5 8 -2 20 -7 11 -23 20 -35 20 -14 0 -23 6 -23 15 0 8 -6 15 -14 15 -8 0 -27
7 -43 15 -15 8 -84 37 -153 65 -69 28 -139 58 -157 66 -17 9 -37 13 -45 9 -7
-5 -10 -4 -5 0 4 5 -11 19 -32 32 -60 36 -95 113 -89 199 4 58 8 70 32 90 15
13 33 24 41 24 7 0 46 -14 86 -31z m804 22 c3 -5 1 -12 -5 -16 -5 -3 -10 1
-10 9 0 18 6 21 15 7z m1155 -12 c0 -5 -4 -9 -10 -9 -5 0 -10 7 -10 16 0 8 5
12 10 9 6 -3 10 -10 10 -16z m485 11 c-3 -5 -12 -10 -18 -10 -7 0 -6 4 3 10
19 12 23 12 15 0z m271 -35 c-11 -8 -25 -15 -30 -15 -6 1 0 7 14 15 32 19 40
18 16 0z m-1906 -5 c0 -5 -4 -10 -10 -10 -5 0 -10 5 -10 10 0 6 5 10 10 10 6
0 10 -4 10 -10z m17 -37 c-3 -10 -5 -2 -5 17 0 19 2 27 5 18 2 -10 2 -26 0
-35z m2223 43 c0 -2 -7 -7 -16 -10 -8 -3 -12 -2 -9 4 6 10 25 14 25 6z m91
-11 c0 -30 -14 -118 -27 -172 -8 -34 -16 -79 -18 -101 -6 -60 -17 -135 -23
-154 -5 -19 -28 -24 -37 -9 -6 9 12 115 25 146 5 11 13 49 19 85 6 36 18 97
26 137 7 40 14 75 14 78 0 4 5 5 11 3 6 -2 10 -8 10 -13z m-2281 -15 c0 -5 -2
-10 -4 -10 -3 0 -8 5 -11 10 -3 6 -1 10 4 10 6 0 11 -4 11 -10z m-50 -4 c0 -3
-4 -8 -10 -11 -5 -3 -10 -1 -10 4 0 6 5 11 10 11 6 0 10 -2 10 -4z m80 -6 c0
-5 -4 -10 -10 -10 -5 0 -10 5 -10 10 0 6 5 10 10 10 6 0 10 -4 10 -10z m1770
5 c0 -2 -10 -9 -22 -15 -22 -11 -22 -10 -4 4 21 17 26 19 26 11z m324 -10
c-10 -8 -23 -15 -28 -15 -6 0 -1 7 10 15 10 8 23 15 28 15 6 0 1 -7 -10 -15z
m-2204 -40 c0 -25 -4 -45 -9 -45 -4 0 -8 20 -8 45 0 25 4 45 8 45 5 0 9 -20 9
-45z m80 25 c0 -5 -2 -10 -4 -10 -3 0 -8 5 -11 10 -3 6 -1 10 4 10 6 0 11 -4
11 -10z m-50 -10 c0 -5 -4 -10 -10 -10 -5 0 -10 5 -10 10 0 6 5 10 10 10 6 0
10 -4 10 -10z m80 0 c0 -5 -4 -10 -10 -10 -5 0 -10 5 -10 10 0 6 5 10 10 10 6
0 10 -4 10 -10z m30 -10 c0 -5 -4 -10 -10 -10 -5 0 -10 5 -10 10 0 6 5 10 10
10 6 0 10 -4 10 -10z m1665 0 c-3 -5 -16 -15 -28 -21 -19 -9 -19 -8 3 10 28
23 34 26 25 11z m-1725 -10 c0 -5 -2 -10 -4 -10 -3 0 -8 5 -11 10 -3 6 -1 10
4 10 6 0 11 -4 11 -10z m2045 0 c-3 -5 -12 -10 -18 -10 -7 0 -6 4 3 10 19 12
23 12 15 0z m185 0 c0 -5 -2 -10 -4 -10 -3 0 -8 5 -11 10 -3 6 -1 10 4 10 6 0
11 -4 11 -10z m-2280 -10 c0 -5 -4 -10 -10 -10 -5 0 -10 5 -10 10 0 6 5 10 10
10 6 0 10 -4 10 -10z m80 0 c0 -5 -4 -10 -10 -10 -5 0 -10 5 -10 10 0 6 5 10
10 10 6 0 10 -4 10 -10z m25 -10 c3 -5 1 -10 -4 -10 -6 0 -11 5 -11 10 0 6 2
10 4 10 3 0 8 -4 11 -10z m-55 -10 c0 -5 -2 -10 -4 -10 -3 0 -8 5 -11 10 -3 6
-1 10 4 10 6 0 11 -4 11 -10z m1986 -5 c-11 -8 -25 -15 -30 -15 -6 1 0 7 14
15 32 19 40 18 16 0z m-2121 -5 c3 -5 1 -10 -4 -10 -6 0 -11 5 -11 10 0 6 2
10 4 10 3 0 8 -4 11 -10z m85 0 c0 -5 -4 -10 -10 -10 -5 0 -10 5 -10 10 0 6 5
10 10 10 6 0 10 -4 10 -10z m157 -12 c-3 -8 -6 -5 -6 6 -1 11 2 17 5 13 3 -3
4 -12 1 -19z m1552 18 c-2 -2 -15 -9 -29 -15 -24 -11 -24 -11 -6 3 16 13 49
24 35 12z m-1519 -16 c0 -5 -5 -10 -11 -10 -5 0 -7 5 -4 10 3 6 8 10 11 10 2
0 4 -4 4 -10z m-220 -16 c0 -8 -4 -12 -10 -9 -5 3 -10 10 -10 16 0 5 5 9 10 9
6 0 10 -7 10 -16z m80 6 c0 -5 -5 -10 -11 -10 -5 0 -7 5 -4 10 3 6 8 10 11 10
2 0 4 -4 4 -10z m-1065 -10 c3 -5 2 -10 -4 -10 -5 0 -13 5 -16 10 -3 6 -2 10
4 10 5 0 13 -4 16 -10z m1010 0 c3 -5 1 -10 -4 -10 -6 0 -11 5 -11 10 0 6 2
10 4 10 3 0 8 -4 11 -10z m80 0 c3 -5 1 -10 -4 -10 -6 0 -11 5 -11 10 0 6 2
10 4 10 3 0 8 -4 11 -10z m-58 -22 c-3 -8 -6 -5 -6 6 -1 11 2 17 5 13 3 -3 4
-12 1 -19z m1953 17 c0 -2 -10 -9 -22 -15 -22 -11 -22 -10 -4 4 21 17 26 19
26 11z m-1920 -20 c0 -8 -2 -15 -4 -15 -2 0 -6 7 -10 15 -3 8 -1 15 4 15 6 0
10 -7 10 -15z m140 5 c0 -5 -2 -10 -4 -10 -3 0 -8 5 -11 10 -3 6 -1 10 4 10 6
0 11 -4 11 -10z m1986 -5 c-11 -8 -24 -15 -30 -15 -5 0 -1 7 10 15 10 8 24 14
29 14 6 0 1 -6 -9 -14z m-3296 -5 c0 -5 -4 -10 -9 -10 -6 0 -13 5 -16 10 -3 6
1 10 9 10 9 0 16 -4 16 -10z m1196 -17 c-10 -10 -19 5 -10 18 6 11 8 11 12 0
2 -7 1 -15 -2 -18z m29 -3 c3 -5 1 -10 -4 -10 -6 0 -11 5 -11 10 0 6 2 10 4
10 3 0 8 -4 11 -10z m340 0 c3 -5 1 -10 -4 -10 -6 0 -11 5 -11 10 0 6 2 10 4
10 3 0 8 -4 11 -10z m1464 6 c-2 -2 -15 -9 -29 -15 -24 -11 -24 -11 -6 3 16
13 49 24 35 12z m197 -21 c-11 -8 -24 -15 -30 -15 -5 0 -1 7 10 15 10 8 24 14
29 14 6 0 1 -6 -9 -14z m-771 -25 c3 -5 1 -10 -4 -10 -6 0 -11 5 -11 10 0 6 2
10 4 10 3 0 8 -4 11 -10z m489 -5 c-10 -8 -23 -14 -29 -14 -5 0 -1 6 9 14 11
8 24 15 30 15 5 0 1 -7 -10 -15z m212 -10 c-11 -8 -25 -15 -30 -15 -6 1 0 7
14 15 32 19 40 18 16 0z m-3066 -35 c0 -5 -7 -10 -15 -10 -8 0 -15 5 -15 10 0
6 7 10 15 10 8 0 15 -4 15 -10z m1450 0 c0 -5 -2 -10 -4 -10 -3 0 -8 5 -11 10
-3 6 -1 10 4 10 6 0 11 -4 11 -10z m1593 -6 c60 -31 56 -60 -6 -49 -42 8 -60
25 -51 49 8 20 17 20 57 0z m-2893 -14 c0 -5 -4 -10 -10 -10 -5 0 -10 5 -10
10 0 6 5 10 10 10 6 0 10 -4 10 -10z m2850 -112 c19 -40 40 -81 48 -90 19 -23
33 -89 33 -163 1 -56 3 -62 30 -77 16 -10 29 -24 29 -33 0 -14 -7 -16 -40 -10
-35 6 -40 5 -40 -13 0 -11 -7 -22 -15 -26 -8 -3 -15 -10 -15 -17 0 -6 -14 -24
-31 -40 -31 -29 -59 -38 -59 -19 0 21 24 60 42 65 10 4 18 14 18 24 0 10 7 24
15 31 8 7 15 22 15 34 0 12 5 27 11 33 7 7 9 30 5 60 -3 26 -7 62 -9 79 -1 18
-8 38 -15 47 -7 8 -10 21 -6 30 6 17 -16 65 -52 114 -27 36 -29 43 -11 43 7 0
28 -33 47 -72z m68 43 c9 -5 43 -20 75 -32 40 -16 57 -28 57 -41 0 -24 -18
-23 -95 8 -70 28 -80 37 -71 59 6 18 10 18 34 6z m-188 -20 c0 -5 16 -32 35
-60 19 -28 35 -61 35 -74 0 -13 3 -27 7 -31 5 -4 7 -35 5 -69 -4 -89 -40 -156
-84 -157 -23 0 -25 45 -2 54 8 3 24 27 36 53 18 42 19 52 8 102 -12 56 -15 63
-51 128 -23 40 -24 63 -4 63 8 0 15 -4 15 -9z m-3894 -52 c10 -17 -13 -36 -27
-22 -12 12 -4 33 11 33 5 0 12 -5 16 -11z m146 -40 c15 1 51 -9 80 -22 89 -40
115 -49 135 -45 19 3 98 -40 89 -49 -3 -3 -19 2 -37 11 -20 10 -37 13 -47 7
-10 -5 -23 -4 -34 3 -15 9 -22 6 -43 -18 -32 -37 -31 -42 5 -76 34 -32 37 -40
13 -40 -25 1 -54 45 -56 83 -2 29 -6 33 -65 53 -37 13 -76 35 -94 52 -32 34
-29 58 6 47 11 -4 33 -6 48 -6z m1645 -68 c10 -16 8 -20 -13 -31 -35 -19 -30
-30 14 -30 l37 0 -30 -25 c-16 -14 -63 -51 -103 -82 -40 -31 -69 -60 -65 -64
4 -4 34 -21 67 -38 51 -25 62 -28 85 -18 14 7 32 20 39 29 16 22 62 24 62 3 0
-9 12 -18 30 -21 17 -4 30 -11 30 -16 0 -6 -13 -8 -30 -4 -16 3 -44 9 -61 12
-21 5 -34 2 -40 -7 -14 -23 -11 -28 26 -43 19 -8 35 -19 35 -25 0 -5 9 -7 20
-4 12 3 28 -1 38 -9 9 -8 39 -27 67 -43 28 -16 44 -30 36 -33 -7 -2 -16 0 -20
5 -7 12 -60 23 -77 16 -7 -2 -10 -11 -7 -19 4 -10 -2 -14 -20 -14 -14 0 -29
-4 -32 -10 -3 -5 -15 -10 -26 -10 -10 0 -19 5 -19 10 0 6 8 10 18 10 25 1 66
35 58 49 -4 6 -14 11 -22 11 -8 0 -14 5 -14 10 0 6 -11 10 -25 10 -45 0 -94
27 -101 54 -3 15 -13 26 -23 26 -9 0 -41 9 -71 20 -69 25 -78 25 -115 -5 -27
-22 -28 -25 -10 -30 11 -4 27 -11 35 -16 8 -5 40 -20 70 -35 30 -14 83 -40
117 -58 63 -31 63 -31 33 -39 -17 -4 -30 -10 -30 -13 0 -6 107 -54 121 -54 6
0 9 9 6 20 -4 17 0 20 28 20 19 0 37 -4 40 -10 3 -5 17 -10 31 -10 13 0 24 5
24 10 0 6 11 10 25 10 30 0 33 -16 5 -23 -40 -10 -15 -30 80 -63 19 -7 36 -17
38 -23 5 -15 -53 -3 -100 20 -21 11 -49 19 -63 19 -14 0 -34 5 -45 12 -10 7
-22 9 -26 5 -11 -10 38 -46 64 -47 12 0 22 -4 22 -9 0 -10 -29 -3 -83 18 -16
6 -39 8 -52 5 -17 -4 -24 -1 -27 11 -3 17 -57 42 -110 52 -44 8 -35 -22 11
-40 22 -9 42 -21 46 -27 3 -5 15 -10 25 -10 25 0 73 -48 66 -66 -6 -16 -26
-19 -26 -4 0 6 -7 10 -15 10 -8 0 -15 -4 -15 -10 0 -5 5 -10 10 -10 6 0 10
-12 10 -27 0 -14 7 -34 16 -44 14 -16 14 -19 -5 -38 -12 -12 -21 -23 -21 -25
0 -2 30 12 66 30 76 40 125 45 117 14 -3 -10 -11 -25 -19 -31 -20 -16 -17 -37
6 -44 15 -5 18 -12 14 -34 -4 -16 -1 -32 5 -35 15 -9 14 -43 -1 -48 -18 -6 1
-28 24 -28 12 0 36 -12 55 -26 19 -14 50 -30 69 -35 19 -6 34 -16 34 -24 0 -8
5 -15 12 -15 6 0 9 -2 7 -4 -6 -7 -99 25 -99 34 0 4 -15 7 -32 8 l-33 0 38
-19 c36 -19 38 -21 21 -34 -11 -7 -22 -12 -25 -9 -3 2 -24 6 -45 8 -35 5 -88
19 -149 41 -17 6 -16 3 5 -16 14 -12 18 -20 10 -17 -64 24 -107 44 -118 55 -7
7 -19 13 -25 13 -13 0 -246 91 -325 126 -29 13 -57 24 -62 24 -5 0 -26 9 -47
19 -21 11 -132 58 -248 105 -273 111 -276 113 -257 142 7 11 680 464 689 464
3 0 25 15 51 32 54 38 195 126 202 127 3 1 10 -7 17 -18z m-1223 -22 c14 -17
26 -34 26 -37 -1 -45 -44 -84 -106 -95 -22 -4 -40 0 -65 17 -19 12 -53 28 -76
34 -32 10 -43 18 -43 32 0 22 25 27 37 8 8 -13 59 -36 101 -45 16 -4 22 -1 22
11 0 12 6 15 25 10 20 -5 24 -3 19 10 -3 9 -13 16 -22 16 -8 0 -12 3 -9 6 7 7
67 -15 67 -24 0 -2 -8 -11 -17 -18 -17 -13 -17 -13 0 -14 10 0 27 8 37 18 19
18 19 18 -5 44 -13 15 -34 29 -45 33 -11 4 -18 11 -15 16 12 18 44 8 69 -22z
m2757 -12 c-6 -6 -21 -2 -40 9 -44 26 -38 35 9 17 26 -10 37 -20 31 -26z m189
3 c0 -5 -4 -10 -10 -10 -5 0 -10 5 -10 10 0 6 5 10 10 10 6 0 10 -4 10 -10z
m-215 -52 c7 -8 4 -9 -8 -4 -10 3 -27 6 -38 6 -10 0 -19 5 -19 11 0 13 50 3
65 -13z m1485 12 c0 -5 -5 -10 -11 -10 -5 0 -7 5 -4 10 3 6 8 10 11 10 2 0 4
-4 4 -10z m-1938 -30 c85 -23 154 -137 143 -232 -4 -27 -1 -39 11 -46 22 -12
9 -32 -21 -32 -13 0 -27 -5 -30 -11 -4 -6 -19 -7 -37 -4 -38 9 -207 88 -233
110 -20 16 -20 16 2 6 12 -6 32 -11 45 -11 13 0 28 -4 34 -9 5 -5 26 -14 47
-21 34 -11 39 -10 55 10 17 21 20 22 48 7 42 -22 52 -11 49 51 -4 78 -39 126
-121 162 -35 16 -64 32 -64 36 0 3 6 4 14 1 8 -3 34 -11 58 -17z m-2007 0 c3
-5 -3 -10 -14 -10 -12 0 -21 5 -21 10 0 6 6 10 14 10 8 0 18 -4 21 -10z m2579
-21 c22 -20 -25 -19 -50 0 l-27 21 34 -6 c19 -4 38 -10 43 -15z m-106 -8 c58
-23 29 -52 -33 -31 -35 11 -46 34 -22 43 6 3 14 4 17 3 3 -1 20 -8 38 -15z
m-2652 -22 c18 -20 18 -21 -2 -59 l-21 -38 46 3 c25 2 75 11 110 20 35 9 70
14 77 11 20 -8 17 -33 -6 -58 -10 -12 -17 -25 -14 -30 3 -4 -4 -20 -15 -34
-12 -15 -21 -33 -21 -40 0 -19 58 -18 104 1 41 17 104 11 113 -11 2 -7 11 -10
19 -7 8 3 14 0 14 -6 0 -6 -7 -11 -15 -11 -8 0 -15 -6 -15 -13 0 -7 -26 -28
-57 -47 -63 -38 -103 -53 -103 -40 0 5 -17 16 -37 25 -21 9 -51 22 -68 30
-111 48 -154 65 -165 65 -8 0 -21 6 -29 13 -9 7 -36 22 -61 32 -127 52 -132
56 -120 71 7 8 16 14 21 14 5 0 50 29 101 64 51 36 100 65 109 65 9 1 24 -8
35 -20z m356 -11 c-7 -7 -12 -8 -12 -2 0 6 3 14 7 17 3 4 9 5 12 2 2 -3 -1
-11 -7 -17z m3798 8 c0 -2 -7 -6 -15 -10 -8 -3 -15 -1 -15 4 0 6 7 10 15 10 8
0 15 -2 15 -4z m-185 -75 c3 -5 1 -12 -5 -16 -5 -3 -10 1 -10 9 0 18 6 21 15
7z m-2434 -41 c40 -21 44 -40 9 -40 -15 0 -75 22 -99 37 -1 1 0 6 4 12 10 17
42 13 86 -9z m-2651 -20 c0 -5 -4 -10 -10 -10 -5 0 -10 5 -10 10 0 6 5 10 10
10 6 0 10 -4 10 -10z m1627 -5 c2 -6 -4 -20 -13 -30 -13 -17 -15 -17 -10 -2 3
9 1 17 -4 17 -6 0 -10 7 -10 16 0 17 31 16 37 -1z m-1577 -15 c0 -5 -4 -10
-10 -10 -5 0 -10 5 -10 10 0 6 5 10 10 10 6 0 10 -4 10 -10z m2420 -5 c0 -10
-10 -15 -30 -15 -20 0 -30 5 -30 15 0 10 10 15 30 15 20 0 30 -5 30 -15z
m-891 -21 c10 -23 10 -26 -4 -20 -9 3 -19 6 -21 6 -2 0 -4 9 -4 20 0 28 15 25
29 -6z m3821 22 c0 -2 -7 -6 -15 -10 -8 -3 -15 -1 -15 4 0 6 7 10 15 10 8 0
15 -2 15 -4z m-1425 -20 c19 -8 35 -20 35 -25 0 -15 -45 -14 -73 2 -12 6 -24
13 -26 14 -6 3 10 23 20 23 5 0 25 -7 44 -14z m-2623 -18 c-7 -7 -12 -8 -12
-2 0 6 3 14 7 17 3 4 9 5 12 2 2 -3 -1 -11 -7 -17z m3803 12 c-3 -5 -10 -10
-16 -10 -5 0 -9 5 -9 10 0 6 7 10 16 10 8 0 12 -4 9 -10z m-4710 -20 c3 -5 1
-10 -4 -10 -6 0 -11 5 -11 10 0 6 2 10 4 10 3 0 8 -4 11 -10z m1085 -5 c0 -9
-6 -12 -15 -9 -8 4 -15 10 -15 15 0 5 7 9 15 9 8 0 15 -7 15 -15z m3875 5 c-3
-5 -11 -10 -16 -10 -6 0 -7 5 -4 10 3 6 11 10 16 10 6 0 7 -4 4 -10z m-2815
-10 c0 -5 -9 -10 -20 -10 -11 0 -20 5 -20 10 0 6 9 10 20 10 11 0 20 -4 20
-10z m-2190 -31 c0 -5 -7 -9 -15 -9 -15 0 -20 12 -9 23 8 8 24 -1 24 -14z
m-140 -4 c0 -8 -7 -15 -15 -15 -16 0 -20 12 -8 23 11 12 23 8 23 -8z m105 -17
c24 -22 -44 -65 -81 -51 -17 6 -19 44 -3 60 13 13 67 7 84 -9z m3221 -14 c31
-13 46 -34 25 -34 -14 0 -121 49 -121 56 0 8 55 -5 96 -22z m921 4 c34 -12 43
-32 20 -41 -19 -7 -87 23 -87 39 0 17 23 18 67 2z m593 2 c0 -5 -5 -10 -11
-10 -5 0 -7 5 -4 10 3 6 8 10 11 10 2 0 4 -4 4 -10z m-2540 -30 l35 -19 -42
-1 c-36 0 -43 3 -43 20 0 24 5 24 50 0z m-2150 1 c0 -14 -18 -23 -30 -16 -6 4
-8 11 -5 16 8 12 35 12 35 0z m3287 -18 c44 -19 58 -43 23 -43 -29 0 -90 32
-90 47 0 17 16 16 67 -4z m-3437 -2 c0 -12 -20 -25 -27 -18 -7 7 6 27 18 27 5
0 9 -4 9 -9z m2185 -1 c-3 -5 -12 -7 -20 -3 -21 7 -19 13 6 13 11 0 18 -4 14
-10z m1090 0 c3 -5 14 -10 24 -10 25 0 121 -41 121 -51 0 -15 -18 -10 -108 31
-48 22 -77 40 -65 40 12 0 25 -4 28 -10z m714 -27 c21 -13 22 -17 8 -24 -17
-10 -97 16 -97 31 0 23 47 19 89 -7z m-2963 -20 c-11 -11 -19 6 -11 24 8 17 8
17 12 0 3 -10 2 -21 -1 -24z m2289 -23 c3 -5 15 -10 26 -10 10 0 19 -4 19 -10
0 -5 -9 -10 -20 -10 -11 0 -20 5 -20 10 0 6 -6 10 -14 10 -8 0 -18 5 -21 10
-3 6 1 10 9 10 8 0 18 -4 21 -10z m176 -30 c-30 -26 -49 -26 -26 0 10 11 25
20 34 20 12 -1 10 -5 -8 -20z m-1221 -40 c0 -5 -13 -10 -30 -10 -16 0 -30 5
-30 10 0 6 14 10 30 10 17 0 30 -4 30 -10z m125 0 c3 -5 -1 -10 -9 -10 -8 0
-18 5 -21 10 -3 6 1 10 9 10 8 0 18 -4 21 -10z m-1845 -20 c0 -5 -4 -10 -10
-10 -5 0 -10 5 -10 10 0 6 5 10 10 10 6 0 10 -4 10 -10z m295 0 c3 -5 -1 -10
-9 -10 -9 0 -16 5 -16 10 0 6 4 10 9 10 6 0 13 -4 16 -10z m-1967 -17 c2 -8
-6 -13 -22 -13 -17 0 -26 5 -26 16 0 19 41 16 48 -3z m1717 -13 c-3 -5 -11
-10 -16 -10 -6 0 -7 5 -4 10 3 6 11 10 16 10 6 0 7 -4 4 -10z m-1621 -6 c35
-13 11 -44 -34 -44 -23 0 -34 16 -26 35 6 16 33 19 60 9z m3950 -45 c19 -17
-4 -22 -49 -9 -41 11 -55 27 -39 42 6 7 73 -18 88 -33z m1121 22 c3 -5 -31
-36 -75 -68 -153 -111 -177 -128 -196 -148 -10 -10 -59 -45 -109 -77 -49 -31
-146 -97 -214 -145 -144 -102 -151 -107 -151 -95 0 6 51 47 113 93 61 46 121
93 132 104 11 11 37 31 58 45 20 14 39 33 42 42 3 9 34 30 68 47 34 17 116 71
182 120 119 89 138 100 150 82z m-4965 -14 c15 -8 42 -16 62 -20 20 -3 53 -16
74 -30 22 -13 52 -28 68 -33 l29 -10 -27 -18 c-38 -24 -66 -54 -66 -68 0 -7
14 -27 32 -45 21 -22 27 -33 17 -33 -26 0 -63 52 -64 89 0 32 -3 34 -65 57
-36 14 -72 33 -80 43 -8 10 -27 21 -42 25 -19 4 -28 13 -28 25 0 30 49 39 90
18z m3985 -1 c22 -8 39 -17 38 -20 -8 -30 -11 -31 -58 -11 -83 34 -66 61 20
31z m-2183 -28 c-14 -14 12 -48 37 -48 9 0 35 -9 56 -20 37 -19 41 -19 52 -4
10 14 15 15 28 4 14 -11 20 -11 37 -1 17 10 22 10 29 0 4 -7 3 -21 -2 -30 -17
-32 -10 -43 14 -21 13 12 30 22 39 22 9 0 18 6 21 13 2 6 8 8 13 4 5 -5 2 -12
-6 -17 -8 -5 -24 -16 -35 -25 -19 -16 -18 -16 18 -10 23 4 37 2 37 -5 0 -5 7
-10 15 -10 18 0 20 -17 3 -23 -7 -2 -10 -8 -6 -12 4 -4 14 -3 21 3 19 16 28 4
14 -19 -13 -21 -42 -25 -52 -9 -4 6 -15 8 -26 5 -64 -18 -64 -18 -51 -4 20 22
14 31 -17 24 -23 -5 -30 -2 -33 11 -2 14 -14 19 -43 20 -22 1 -43 -3 -46 -9
-4 -5 -15 -7 -25 -3 -18 7 -18 8 -1 20 20 16 22 36 3 36 -8 0 -17 7 -20 16 -3
9 -13 14 -20 11 -8 -3 -20 1 -26 9 -7 8 -22 14 -34 14 -41 0 -48 21 -18 51 15
15 29 25 31 23 3 -2 -1 -10 -7 -16z m2375 -15 c5 -15 -36 -28 -49 -15 -6 6 -7
15 -3 22 9 14 47 9 52 -7z m43 -23 c0 -5 -5 -10 -11 -10 -5 0 -7 5 -4 10 3 6
8 10 11 10 2 0 4 -4 4 -10z m-2690 -9 c0 -6 -4 -13 -10 -16 -5 -3 -10 1 -10 9
0 9 5 16 10 16 6 0 10 -4 10 -9z m-1190 -17 c0 -9 -7 -14 -17 -12 -25 5 -28
28 -4 28 12 0 21 -6 21 -16z m107 -16 c13 -12 23 -33 23 -47 -1 -28 -26 -69
-37 -58 -3 4 1 15 11 25 20 23 13 47 -23 79 -17 14 -21 22 -12 23 8 0 25 -10
38 -22z m3423 -24 c0 -16 -46 -19 -55 -4 -3 6 -15 10 -25 10 -23 0 -37 20 -21
30 17 10 101 -20 101 -36z m-1530 16 c0 -5 -4 -10 -9 -10 -6 0 -13 5 -16 10
-3 6 1 10 9 10 9 0 16 -4 16 -10z m-1932 -39 c5 -33 -15 -51 -32 -28 -7 9 -25
17 -40 17 -16 0 -26 5 -26 15 0 17 16 20 25 5 10 -16 35 -12 35 6 0 25 35 12
38 -15z m677 19 c-3 -5 -11 -10 -16 -10 -6 0 -7 5 -4 10 3 6 11 10 16 10 6 0
7 -4 4 -10z m-815 -15 c0 -9 -9 -15 -22 -15 -22 1 -23 1 -4 15 25 19 26 19 26
0z m1916 1 c10 -8 16 -17 12 -21 -4 -4 -19 2 -34 14 -30 24 -10 30 22 7z
m3541 -2 c-3 -3 -12 -4 -19 -1 -8 3 -5 6 6 6 11 1 17 -2 13 -5z m-3292 -14
c-3 -5 -12 -10 -20 -10 -7 0 -15 -6 -18 -13 -3 -8 -82 -65 -176 -127 -94 -63
-171 -117 -171 -120 0 -20 39 -43 155 -95 177 -78 215 -97 215 -107 0 -14 -20
-9 -26 7 -4 8 -10 13 -15 10 -4 -3 -16 -1 -26 4 -25 13 -78 36 -143 61 -138
53 -225 96 -228 112 -2 12 28 37 104 88 59 38 111 70 115 70 5 0 9 7 9 15 0 8
-5 15 -11 15 -5 0 -7 5 -3 11 3 6 17 8 30 5 16 -4 39 3 71 22 88 50 108 60
126 61 10 1 15 -3 12 -9z m-2217 -24 c3 -15 1 -16 -17 -6 -12 6 -19 16 -15 21
9 15 28 5 32 -15z m92 6 c0 -10 -41 -35 -47 -28 -9 8 17 36 33 36 8 0 14 -3
14 -8z m1070 -2 c0 -5 -4 -10 -10 -10 -5 0 -10 5 -10 10 0 6 5 10 10 10 6 0
10 -4 10 -10z m-89 -21 c35 12 53 6 45 -15 -3 -7 2 -18 12 -23 9 -5 13 -13 9
-17 -10 -11 -101 -5 -105 7 -2 5 -10 16 -19 24 -18 19 -7 41 13 24 10 -8 22
-8 45 0z m3260 -4 c-1 -15 -24 -12 -29 3 -3 9 2 13 12 10 10 -1 17 -7 17 -13z
m-2681 -5 c0 -5 -4 -10 -10 -10 -5 0 -10 5 -10 10 0 6 5 10 10 10 6 0 10 -4
10 -10z m-1545 -37 c-18 -12 -55 -18 -55 -8 0 2 12 11 27 19 33 17 54 9 28
-11z m95 23 c0 -3 -4 -8 -10 -11 -5 -3 -10 -1 -10 4 0 6 5 11 10 11 6 0 10 -2
10 -4z m815 -46 c3 -5 -1 -10 -9 -10 -9 0 -16 5 -16 10 0 6 4 10 9 10 6 0 13
-4 16 -10z m175 -4 c0 -3 -4 -8 -10 -11 -5 -3 -10 -1 -10 4 0 6 5 11 10 11 6
0 10 -2 10 -4z m1197 -22 c-3 -3 -12 -4 -19 -1 -8 3 -5 6 6 6 11 1 17 -2 13
-5z m43 -24 c0 -5 -7 -10 -16 -10 -8 0 -12 5 -9 10 3 6 10 10 16 10 5 0 9 -4
9 -10z m-1130 -4 c0 -11 -19 -15 -25 -6 -3 5 1 10 9 10 9 0 16 -2 16 -4z
m3795 -6 c3 -5 -1 -10 -10 -10 -9 0 -13 5 -10 10 3 6 8 10 10 10 2 0 7 -4 10
-10z m-4180 -10 c3 -5 -1 -10 -9 -10 -9 0 -16 5 -16 10 0 6 4 10 9 10 6 0 13
-4 16 -10z m545 0 c0 -5 -7 -10 -15 -10 -8 0 -15 5 -15 10 0 6 7 10 15 10 8 0
15 -4 15 -10z m1010 0 c0 -5 -7 -10 -16 -10 -8 0 -12 5 -9 10 3 6 10 10 16 10
5 0 9 -4 9 -10z m-1115 -10 c3 -5 -1 -10 -9 -10 -9 0 -16 5 -16 10 0 6 4 10 9
10 6 0 13 -4 16 -10z m267 -12 c-7 -7 -12 -8 -12 -2 0 14 12 26 19 19 2 -3 -1
-11 -7 -17z m1068 12 c8 -5 11 -10 5 -10 -5 0 -17 5 -25 10 -8 5 -10 10 -5 10
6 0 17 -5 25 -10z m2537 4 c-3 -3 -12 -4 -19 -1 -8 3 -5 6 6 6 11 1 17 -2 13
-5z m-3197 -14 c0 -5 -8 -10 -17 -10 -15 0 -16 2 -3 10 19 12 20 12 20 0z
m480 0 c0 -5 -7 -10 -16 -10 -8 0 -12 5 -9 10 3 6 10 10 16 10 5 0 9 -4 9 -10z
m-1105 -10 c3 -5 -1 -10 -10 -10 -9 0 -13 5 -10 10 3 6 8 10 10 10 2 0 7 -4
10 -10z m-538 -6 c-3 -3 -12 -4 -19 -1 -8 3 -5 6 6 6 11 1 17 -2 13 -5z m1690
0 c-3 -3 -12 -4 -19 -1 -8 3 -5 6 6 6 11 1 17 -2 13 -5z m213 -9 c14 -8 21
-14 15 -14 -5 0 -21 6 -35 14 -14 8 -20 14 -15 14 6 0 21 -6 35 -14z m309 4
c18 -6 30 -14 27 -17 -3 -3 0 -12 7 -20 10 -13 9 -15 -8 -8 -11 4 -33 13 -50
19 -38 13 -38 13 -30 26 8 14 14 14 54 0z m-1719 -19 c0 -5 -8 -10 -17 -10
-15 0 -16 2 -3 10 19 12 20 12 20 0z m-540 -4 c0 -11 -19 -15 -25 -6 -3 5 1
10 9 10 9 0 16 -2 16 -4z m1825 -6 c3 -5 -1 -10 -10 -10 -9 0 -13 5 -10 10 3
6 8 10 10 10 2 0 7 -4 10 -10z m2355 0 c0 -5 -4 -10 -9 -10 -6 0 -13 5 -16 10
-3 6 1 10 9 10 9 0 16 -4 16 -10z m-2093 -17 c20 -8 31 -18 27 -24 -4 -7 1 -9
14 -5 12 4 26 1 35 -8 8 -8 17 -12 21 -9 3 4 6 2 6 -4 0 -5 77 -42 170 -83 94
-40 169 -74 167 -77 -4 -4 -452 184 -506 212 l-25 13 29 0 c16 0 44 -7 62 -15z
m-632 -3 c-3 -5 -11 -10 -16 -10 -6 0 -7 5 -4 10 3 6 11 10 16 10 6 0 7 -4 4
-10z m410 0 c3 -5 -1 -10 -10 -10 -9 0 -13 5 -10 10 3 6 8 10 10 10 2 0 7 -4
10 -10z m2355 0 c0 -5 -7 -7 -15 -4 -8 4 -15 8 -15 10 0 2 7 4 15 4 8 0 15 -4
15 -10z m-4270 -10 c0 -5 -7 -10 -15 -10 -8 0 -15 5 -15 10 0 6 7 10 15 10 8
0 15 -4 15 -10z m675 0 c-3 -5 -10 -10 -16 -10 -5 0 -9 5 -9 10 0 6 7 10 16
10 8 0 12 -4 9 -10z m3518 3 c-7 -2 -19 -2 -25 0 -7 3 -2 5 12 5 14 0 19 -2
13 -5z m-2923 -13 c0 -5 -4 -10 -10 -10 -5 0 -10 5 -10 10 0 6 5 10 10 10 6 0
10 -4 10 -10z m685 0 c-3 -5 -11 -10 -16 -10 -6 0 -7 5 -4 10 3 6 11 10 16 10
6 0 7 -4 4 -10z m364 -4 c32 -18 11 -29 -29 -15 -23 9 -28 14 -18 20 17 11 18
11 47 -5z m664 -31 c3 -17 -37 -17 -77 0 -35 15 -37 17 -20 29 15 11 24 11 57
-3 21 -9 40 -21 40 -26z m1334 39 c-3 -3 -12 -4 -19 -1 -8 3 -5 6 6 6 11 1 17
-2 13 -5z m-4342 -14 c8 -13 -12 -40 -29 -40 -21 0 -49 26 -42 38 9 15 63 16
71 2z m4175 0 c0 -5 -2 -10 -4 -10 -3 0 -8 5 -11 10 -3 6 -1 10 4 10 6 0 11
-4 11 -10z m87 4 c-3 -3 -12 -4 -19 -1 -8 3 -5 6 6 6 11 1 17 -2 13 -5z
m-3402 -14 c-3 -5 -10 -10 -16 -10 -5 0 -9 5 -9 10 0 6 7 10 16 10 8 0 12 -4
9 -10z m1175 6 c0 -3 -4 -8 -10 -11 -5 -3 -10 -1 -10 4 0 6 5 11 10 11 6 0 10
-2 10 -4z m2357 -2 c-3 -3 -12 -4 -19 -1 -8 3 -5 6 6 6 11 1 17 -2 13 -5z
m-3957 -14 c0 -5 -8 -10 -17 -10 -15 0 -16 2 -3 10 19 12 20 12 20 0z m4510
-1 c12 -9 12 -10 -4 -5 -26 9 -94 -42 -75 -56 10 -6 7 -7 -9 -3 -15 4 -24 1
-28 -9 -3 -9 -11 -16 -17 -16 -6 0 -19 -7 -29 -17 -10 -9 -21 -14 -23 -11 -6
5 153 128 164 128 3 0 13 -5 21 -11z m327 -19 c56 -24 80 -62 66 -101 -11 -29
-10 -30 28 -46 22 -8 38 -17 36 -19 -2 -3 -21 3 -42 12 -36 15 -41 14 -79 -3
-30 -13 -65 -18 -136 -18 -84 0 -99 3 -126 24 -48 35 -56 62 -35 105 18 35 18
36 -1 42 -11 3 -17 8 -15 11 3 2 15 0 26 -7 15 -7 27 -8 40 0 29 15 121 28
161 23 19 -3 54 -13 77 -23z m-5237 10 c0 -5 -7 -10 -15 -10 -8 0 -15 5 -15
10 0 6 7 10 15 10 8 0 15 -4 15 -10z m1347 4 c-3 -3 -12 -4 -19 -1 -8 3 -5 6
6 6 11 1 17 -2 13 -5z m693 2 c0 -2 -7 -7 -16 -10 -8 -3 -12 -2 -9 4 6 10 25
14 25 6z m-2150 -20 c0 -11 -19 -15 -25 -6 -3 5 1 10 9 10 9 0 16 -2 16 -4z
m2185 -6 c-3 -5 -11 -10 -16 -10 -6 0 -7 5 -4 10 3 6 11 10 16 10 6 0 7 -4 4
-10z m2000 -8 c-3 -3 -11 0 -18 7 -9 10 -8 11 6 5 10 -3 15 -9 12 -12z m-4025
4 c0 -11 -19 -15 -25 -6 -3 5 1 10 9 10 9 0 16 -2 16 -4z m-210 -26 c0 -5 -7
-10 -15 -10 -8 0 -15 5 -15 10 0 6 7 10 15 10 8 0 15 -4 15 -10z m260 0 c0 -5
-4 -10 -10 -10 -5 0 -10 5 -10 10 0 6 5 10 10 10 6 0 10 -4 10 -10z m2070 6
c0 -2 -8 -10 -17 -17 -16 -13 -17 -12 -4 4 13 16 21 21 21 13z m-1310 -27
c-58 -5 -112 -9 -120 -10 -45 -4 -181 -44 -236 -69 -74 -33 -80 -37 -154 -110
-104 -103 -107 -203 -7 -310 l42 -45 -47 44 c-26 25 -54 59 -63 77 -21 45 -19
120 6 171 27 55 113 133 190 172 34 17 67 35 74 41 7 6 17 9 21 8 9 -3 107 18
154 32 14 4 75 7 135 7 l110 0 -105 -8z m4015 1 c3 -5 2 -10 -4 -10 -5 0 -13
5 -16 10 -3 6 -2 10 4 10 5 0 13 -4 16 -10z m-5090 -10 c3 -5 -1 -10 -10 -10
-9 0 -13 5 -10 10 3 6 8 10 10 10 2 0 7 -4 10 -10z m372 4 c-3 -3 -12 -4 -19
-1 -8 3 -5 6 6 6 11 1 17 -2 13 -5z m2630 -10 c41 -16 42 -18 24 -30 -16 -12
-25 -11 -58 2 -48 20 -51 23 -33 34 19 12 17 13 67 -6z m-532 -4 c-3 -5 -12
-10 -18 -10 -7 0 -6 4 3 10 19 12 23 12 15 0z m-2045 -10 c0 -5 -4 -10 -9 -10
-6 0 -13 5 -16 10 -3 6 1 10 9 10 9 0 16 -4 16 -10z m920 1 c0 -5 -7 -11 -15
-15 -15 -5 -20 5 -8 17 9 10 23 9 23 -2z m4950 -1 c0 -5 -4 -10 -10 -10 -5 0
-10 5 -10 10 0 6 5 10 10 10 6 0 10 -4 10 -10z m-6340 -14 c0 -11 -19 -15 -25
-6 -3 5 1 10 9 10 9 0 16 -2 16 -4z m520 -6 c0 -5 -4 -10 -10 -10 -5 0 -10 5
-10 10 0 6 5 10 10 10 6 0 10 -4 10 -10z m585 -15 c85 3 159 -9 215 -34 l25
-12 -25 6 c-92 19 -174 26 -239 21 -160 -15 -332 -101 -378 -189 -21 -41 -13
-119 17 -158 21 -30 21 -30 1 -19 -12 6 -21 16 -21 23 0 8 -3 8 -9 -2 -7 -10
-12 -8 -25 10 -9 13 -19 23 -21 22 -13 -7 -25 -2 -19 9 4 7 3 8 -4 4 -16 -10
-52 25 -52 51 0 92 110 204 255 258 79 30 96 31 113 5 7 -11 20 -20 30 -19 14
0 14 2 -3 9 -19 8 -19 9 4 9 17 1 22 5 17 18 -6 15 -5 15 11 1 14 -11 39 -14
108 -13z m3095 9 c0 -2 -7 -4 -15 -4 -8 0 -15 4 -15 10 0 5 7 7 15 4 8 -4 15
-8 15 -10z m784 10 c21 -8 20 -24 -1 -24 -15 0 -15 -2 -4 -9 9 -6 19 -4 28 5
8 8 19 12 24 9 15 -10 10 -25 -8 -25 -10 -1 20 -17 67 -36 47 -19 93 -33 102
-31 11 3 15 0 11 -9 -3 -8 1 -14 8 -14 7 0 10 -2 7 -5 -3 -3 -27 2 -53 10 -26
9 -49 14 -53 11 -3 -3 3 -6 14 -6 14 0 16 -2 6 -9 -10 -6 -8 -10 9 -14 19 -5
20 -8 9 -22 -18 -22 4 -43 56 -55 48 -11 196 -12 190 -1 -3 4 -26 16 -51 26
-26 9 -44 19 -42 21 6 6 204 -68 253 -95 23 -13 29 -19 14 -14 -14 3 -33 7
-42 7 -10 0 -18 4 -18 8 0 4 -4 8 -8 8 -9 0 -8 -25 4 -98 9 -57 38 -77 98 -69
31 5 53 1 79 -12 26 -13 34 -14 30 -4 -6 15 23 18 32 3 3 -5 1 -10 -4 -10 -18
0 -13 -14 9 -28 14 -9 26 -9 39 -3 34 19 70 20 87 4 14 -14 13 -18 -11 -44
-48 -49 -13 -61 80 -26 40 15 69 12 44 -4 -8 -5 -10 -9 -6 -9 4 0 3 -9 -3 -20
-9 -16 -8 -22 4 -26 16 -6 148 84 141 96 -2 4 2 7 9 7 12 0 194 138 208 157 4
6 9 8 12 5 7 -6 -367 -299 -382 -299 -5 0 -75 27 -156 60 -81 33 -154 60 -163
60 -9 0 -24 6 -32 13 -24 20 -584 247 -609 247 -12 0 -22 4 -22 9 0 5 -19 16
-42 26 -24 9 -76 30 -116 47 l-72 30 102 78 c120 92 103 81 122 74z m-2374 -8
c0 -2 -7 -7 -16 -10 -8 -3 -12 -2 -9 4 6 10 25 14 25 6z m-2682 -18 c12 0 22
-4 22 -9 0 -6 9 -19 20 -31 27 -29 25 -50 -5 -87 -38 -45 -99 -64 -189 -59
-90 4 -129 27 -134 77 -7 70 100 127 213 114 28 -3 60 -5 73 -5z m5269 6 c-3
-3 -12 -4 -19 -1 -8 3 -5 6 6 6 11 1 17 -2 13 -5z m-4617 -8 c0 -11 -19 -15
-25 -6 -3 5 1 10 9 10 9 0 16 -2 16 -4z m955 -36 c3 5 11 10 17 10 7 0 7 -4
-1 -14 -9 -10 -3 -21 24 -50 34 -36 55 -88 55 -136 0 -29 -31 -96 -57 -126
-34 -39 -116 -95 -130 -90 -8 3 -12 2 -9 -2 3 -5 -9 -8 -27 -8 -40 0 -155 -11
-193 -19 -16 -3 7 7 52 23 81 29 125 54 177 101 49 45 74 111 42 111 -8 0 -15
4 -15 9 0 5 7 11 15 15 8 3 15 12 15 20 0 10 -6 13 -17 9 -16 -6 -16 -5 -4 10
11 14 11 18 -3 23 -9 3 -16 12 -16 20 0 8 -25 30 -55 49 -30 20 -55 38 -55 41
0 3 3 3 8 0 4 -2 25 6 47 20 l39 23 43 -24 c25 -15 44 -21 48 -15z m2622 34
c-3 -3 -12 -4 -19 -1 -8 3 -5 6 6 6 11 1 17 -2 13 -5z m949 -36 c10 6 34 1 34
-8 0 -14 -11 -13 -54 5 -20 9 -34 20 -30 26 4 6 13 4 26 -8 11 -10 22 -17 24
-15z m-4476 12 c0 -5 -7 -10 -16 -10 -8 0 -12 5 -9 10 3 6 10 10 16 10 5 0 9
-4 9 -10z m2060 0 c0 -5 -5 -10 -11 -10 -5 0 -7 5 -4 10 3 6 8 10 11 10 2 0 4
-4 4 -10z m-855 -10 c-3 -5 -11 -10 -16 -10 -6 0 -7 5 -4 10 3 6 11 10 16 10
6 0 7 -4 4 -10z m205 0 c0 -5 -8 -10 -17 -10 -15 0 -16 2 -3 10 19 12 20 12
20 0z m4200 0 c0 -5 -7 -10 -15 -10 -8 0 -15 5 -15 10 0 6 7 10 15 10 8 0 15
-4 15 -10z m-3353 -16 c35 -13 41 -20 32 -30 -13 -16 -55 -19 -64 -4 -4 6 -15
8 -25 5 -19 -6 -22 8 -7 33 10 15 13 15 64 -4z m2803 0 c23 -9 39 -18 37 -20
-2 -3 -24 4 -48 15 -54 24 -45 27 11 5z m-4465 -8 c28 -7 64 -20 82 -29 38
-20 70 -22 76 -4 2 6 8 9 12 5 4 -4 0 -14 -9 -23 -15 -16 -14 -19 9 -47 14
-16 25 -34 25 -39 0 -6 8 -6 19 1 12 6 22 6 26 1 3 -5 -3 -12 -14 -16 -12 -4
-21 -19 -25 -44 -8 -49 -84 -121 -154 -146 -64 -23 -225 -31 -293 -15 -104 25
-184 80 -208 143 -23 61 24 139 109 183 83 42 246 57 345 30z m2860 -4 c-3 -3
-11 0 -18 7 -9 10 -8 11 6 5 10 -3 15 -9 12 -12z m1099 3 c3 3 2 0 -3 -6 -10
-12 -31 -4 -31 13 0 7 4 7 13 -1 8 -6 17 -9 21 -6z m56 7 c0 -13 -12 -22 -22
-16 -10 6 -1 24 13 24 5 0 9 -4 9 -8z m-3325 -22 c-3 -5 -11 -10 -16 -10 -6 0
-7 5 -4 10 3 6 11 10 16 10 6 0 7 -4 4 -10z m-244 -92 c26 -98 -26 -197 -147
-277 -65 -44 -206 -102 -244 -101 -8 1 17 11 55 24 226 73 360 217 325 348 -7
23 -21 56 -32 73 l-20 30 26 -28 c14 -15 30 -46 37 -69z m2189 78 c0 -2 -8
-10 -17 -17 -16 -13 -17 -12 -4 4 13 16 21 21 21 13z m237 -12 c-3 -3 -12 -4
-19 -1 -8 3 -5 6 6 6 11 1 17 -2 13 -5z m1723 -4 c8 -5 11 -10 5 -10 -5 0 -17
5 -25 10 -8 5 -10 10 -5 10 6 0 17 -5 25 -10z m310 -12 c24 -13 53 -35 64 -50
17 -24 18 -31 7 -54 -10 -22 -9 -29 1 -37 10 -7 9 -8 -3 -4 -9 3 -34 -3 -55
-13 -22 -11 -66 -22 -99 -25 l-60 -5 65 13 c80 16 119 35 99 49 -10 7 -8 8 8
3 18 -5 24 -1 29 20 9 37 -9 71 -48 91 -63 33 -254 27 -233 -7 4 -6 0 -9 -10
-7 -10 2 -26 -9 -37 -23 -19 -25 -19 -28 -4 -57 11 -20 29 -35 58 -45 73 -26
74 -27 28 -22 -83 11 -136 89 -93 137 15 17 15 21 3 29 -12 8 -10 9 6 4 11 -3
36 1 55 9 54 24 166 20 219 -6z m-3790 -8 c0 -5 -7 -10 -16 -10 -8 0 -12 5 -9
10 3 6 10 10 16 10 5 0 9 -4 9 -10z m608 -10 c22 -11 47 -20 54 -20 7 0 2 -7
-11 -16 -21 -15 -26 -15 -67 1 -24 9 -44 18 -44 20 0 11 13 35 19 35 4 0 26
-9 49 -20z m872 16 c0 -3 -15 -14 -32 -26 l-33 -22 30 26 c31 27 35 29 35 22z
m1440 -6 c8 -5 11 -10 5 -10 -5 0 -17 5 -25 10 -8 5 -10 10 -5 10 6 0 17 -5
25 -10z m754 -27 c-11 -8 -12 -13 -3 -19 7 -4 17 -1 23 7 13 17 52 17 69 0 6
-6 7 -11 1 -11 -5 0 -15 5 -21 11 -7 7 -15 5 -28 -7 -20 -20 -3 -33 19 -15 9
8 17 7 28 -2 16 -13 34 -52 20 -43 -5 3 -20 -6 -35 -20 -23 -21 -29 -22 -52
-12 l-25 11 26 18 c18 11 22 18 12 22 -7 2 -22 -4 -34 -15 -13 -11 -28 -16
-38 -12 -15 6 -13 9 13 20 17 7 31 18 31 24 0 17 -36 11 -55 -10 -10 -11 -23
-20 -29 -20 -6 0 -3 5 7 11 25 14 21 29 -7 27 -15 -1 -22 -7 -19 -15 6 -15 2
-16 -21 -7 -13 5 -12 9 9 26 14 11 23 24 20 29 -4 5 0 6 8 3 8 -3 18 -1 21 5
4 5 22 9 41 8 29 -2 32 -4 19 -14z m-4274 -3 c0 -5 -7 -10 -15 -10 -8 0 -15 5
-15 10 0 6 7 10 15 10 8 0 15 -4 15 -10z m770 0 c-8 -5 -19 -10 -25 -10 -5 0
-3 5 5 10 8 5 20 10 25 10 6 0 3 -5 -5 -10z m1240 -14 c0 -2 -8 -10 -17 -17
-16 -13 -17 -12 -4 4 13 16 21 21 21 13z m-690 -12 c0 -8 -19 -13 -24 -6 -3 5
1 9 9 9 8 0 15 -2 15 -3z m-120 -24 c0 -5 -8 -10 -17 -10 -15 0 -16 2 -3 10
19 12 20 12 20 0z m-580 -4 c0 -3 -4 -8 -10 -11 -5 -3 -10 -1 -10 4 0 6 5 11
10 11 6 0 10 -2 10 -4z m1517 -2 c-3 -3 -12 -4 -19 -1 -8 3 -5 6 6 6 11 1 17
-2 13 -5z m-897 -14 c0 -5 -8 -10 -17 -10 -15 0 -16 2 -3 10 19 12 20 12 20 0z
m-290 -4 c0 -3 -4 -8 -10 -11 -5 -3 -10 -1 -10 4 0 6 5 11 10 11 6 0 10 -2 10
-4z m495 -6 c-3 -5 -12 -10 -18 -10 -7 0 -6 4 3 10 19 12 23 12 15 0z m652 -6
c-3 -3 -12 -4 -19 -1 -8 3 -5 6 6 6 11 1 17 -2 13 -5z m1021 -21 c-15 -2 -42
-2 -60 0 -18 2 -6 4 27 4 33 0 48 -2 33 -4z m112 -3 c0 -5 -4 -10 -9 -10 -6 0
-13 5 -16 10 -3 6 1 10 9 10 9 0 16 -4 16 -10z m-2760 -4 c0 -2 -7 -7 -16 -10
-8 -3 -12 -2 -9 4 6 10 25 14 25 6z m1070 -6 c0 -5 -5 -10 -11 -10 -5 0 -7 5
-4 10 3 6 8 10 11 10 2 0 4 -4 4 -10z m1440 -12 c-25 -13 -51 -35 -59 -49 -13
-24 -13 -30 3 -54 10 -15 36 -35 59 -46 23 -10 36 -19 29 -19 -7 0 -31 9 -53
20 -75 39 -77 106 -4 147 22 13 47 23 55 23 8 0 -6 -10 -30 -22z m217 11 c45
-17 73 -49 73 -84 0 -35 -28 -67 -73 -84 -43 -17 -57 -12 -17 5 47 21 80 53
80 80 0 27 -38 64 -82 80 -18 7 -28 13 -21 13 6 1 24 -4 40 -10z m693 1 c8 -5
11 -10 5 -10 -5 0 -17 5 -25 10 -8 5 -10 10 -5 10 6 0 17 -5 25 -10z m-3876
-15 c-6 -16 -24 -21 -24 -7 0 11 11 22 21 22 5 0 6 -7 3 -15z m2091 -3 c-3 -3
-11 0 -18 7 -9 10 -8 11 6 5 10 -3 15 -9 12 -12z m-1880 -2 c-3 -5 -13 -10
-21 -10 -8 0 -12 5 -9 10 3 6 13 10 21 10 8 0 12 -4 9 -10z m3715 0 c8 -5 11
-10 5 -10 -5 0 -17 5 -25 10 -8 5 -10 10 -5 10 6 0 17 -5 25 -10z m200 -20 c0
-5 -7 -10 -15 -10 -8 0 -15 5 -15 10 0 6 7 10 15 10 8 0 15 -4 15 -10z m-2970
-10 c0 -5 -5 -10 -11 -10 -5 0 -7 5 -4 10 3 6 8 10 11 10 2 0 4 -4 4 -10z
m1967 4 c-3 -3 -12 -4 -19 -1 -8 3 -5 6 6 6 11 1 17 -2 13 -5z m-52 -18 c-16
-12 -17 -16 -6 -30 17 -20 61 -21 87 -1 19 15 19 15 0 30 -11 8 -15 15 -9 15
6 0 16 -7 23 -15 36 -44 -47 -71 -114 -36 -22 11 -34 21 -25 21 9 0 22 7 29
15 7 8 17 15 23 15 6 0 2 -6 -8 -14z m955 4 c8 -5 11 -10 5 -10 -5 0 -17 5
-25 10 -8 5 -10 10 -5 10 6 0 17 -5 25 -10z m56 -18 c5 -5 35 -19 67 -32 32
-12 56 -24 54 -26 -4 -4 -147 52 -156 61 -8 9 25 5 35 -3z m-3486 -22 c0 -5
-7 -10 -16 -10 -8 0 -12 5 -9 10 3 6 10 10 16 10 5 0 9 -4 9 -10z m2393 3 c-7
-2 -21 -2 -30 0 -10 3 -4 5 12 5 17 0 24 -2 18 -5z m1042 -13 c-3 -5 -10 -10
-16 -10 -5 0 -9 5 -9 10 0 6 7 10 16 10 8 0 12 -4 9 -10z m-3885 -4 c0 -3 -4
-8 -10 -11 -5 -3 -10 -1 -10 4 0 6 5 11 10 11 6 0 10 -2 10 -4z m-160 -16 c0
-5 -7 -10 -16 -10 -8 0 -12 5 -9 10 3 6 10 10 16 10 5 0 9 -4 9 -10z m1360 0
c0 -5 -8 -10 -17 -10 -15 0 -16 2 -3 10 19 12 20 12 20 0z m-915 -30 c3 -5 -1
-10 -10 -10 -9 0 -13 5 -10 10 3 6 8 10 10 10 2 0 7 -4 10 -10z m538 -23 c-3
-4 -11 -3 -19 4 -7 6 -21 9 -29 5 -8 -3 -15 -1 -15 3 0 5 5 11 12 13 16 6 58
-15 51 -25z m2317 13 c0 -5 -4 -10 -10 -10 -5 0 -10 5 -10 10 0 6 5 10 10 10
6 0 10 -4 10 -10z m-2609 -23 c-10 -9 -11 -8 -5 6 3 10 9 15 12 12 3 -3 0 -11
-7 -18z m-191 3 c0 -5 -4 -10 -10 -10 -5 0 -10 5 -10 10 0 6 5 10 10 10 6 0
10 -4 10 -10z m2460 0 c0 -5 -7 -10 -16 -10 -8 0 -12 5 -9 10 3 6 10 10 16 10
5 0 9 -4 9 -10z m158 3 c-15 -2 -42 -2 -60 0 -18 2 -6 4 27 4 33 0 48 -2 33
-4z m-2723 -13 c-3 -5 -10 -10 -16 -10 -5 0 -9 5 -9 10 0 6 7 10 16 10 8 0 12
-4 9 -10z m2970 0 c-3 -5 -10 -10 -16 -10 -5 0 -9 5 -9 10 0 6 7 10 16 10 8 0
12 -4 9 -10z m-2810 -10 c3 -5 -1 -10 -10 -10 -9 0 -13 5 -10 10 3 6 8 10 10
10 2 0 7 -4 10 -10z m380 0 c3 -5 -1 -10 -10 -10 -9 0 -13 5 -10 10 3 6 8 10
10 10 2 0 7 -4 10 -10z m2490 -10 c3 -5 -1 -10 -10 -10 -9 0 -13 5 -10 10 3 6
8 10 10 10 2 0 7 -4 10 -10z m-3080 -21 c-4 -5 -13 -9 -22 -9 -13 0 -13 3 -3
15 13 15 35 11 25 -6z m165 17 c0 -2 -7 -7 -16 -10 -8 -3 -12 -2 -9 4 6 10 25
14 25 6z m2407 -2 c-3 -3 -12 -4 -19 -1 -8 3 -5 6 6 6 11 1 17 -2 13 -5z
m-2297 -14 c0 -5 -7 -10 -15 -10 -8 0 -15 5 -15 10 0 6 7 10 15 10 8 0 15 -4
15 -10z m2885 -10 c0 -18 -33 -26 -48 -11 -9 9 -8 14 3 21 21 14 45 8 45 -10z
m-3565 -5 c27 -16 19 -18 -29 -9 -17 4 -28 10 -25 15 7 13 25 11 54 -6z m313
-41 c185 -79 191 -82 176 -100 -20 -25 -57 -16 -205 53 -108 50 -143 70 -139
81 4 12 3 13 -10 2 -9 -7 -15 -8 -15 -2 0 12 17 20 43 21 10 1 78 -24 150 -55z
m637 46 c0 -5 -4 -10 -9 -10 -6 0 -13 5 -16 10 -3 6 1 10 9 10 9 0 16 -4 16
-10z m2977 4 c-3 -3 -12 -4 -19 -1 -8 3 -5 6 6 6 11 1 17 -2 13 -5z m-997 -14
c0 -5 -4 -10 -9 -10 -6 0 -13 5 -16 10 -3 6 1 10 9 10 9 0 16 -4 16 -10z
m-2570 -4 c0 -11 -19 -15 -25 -6 -3 5 1 10 9 10 9 0 16 -2 16 -4z m380 0 c0
-11 -19 -15 -25 -6 -3 5 1 10 9 10 9 0 16 -2 16 -4z m410 -6 c0 -5 -5 -10 -11
-10 -5 0 -7 5 -4 10 3 6 8 10 11 10 2 0 4 -4 4 -10z m-1577 -7 c-7 -2 -19 -2
-25 0 -7 3 -2 5 12 5 14 0 19 -2 13 -5z m1225 -10 c2 -8 -5 -13 -17 -13 -21 0
-35 13 -24 24 10 10 36 3 41 -11z m107 7 c3 -5 -3 -10 -15 -10 -12 0 -18 5
-15 10 3 6 10 10 15 10 5 0 12 -4 15 -10z m2715 0 c0 -5 -7 -10 -15 -10 -8 0
-15 5 -15 10 0 6 7 10 15 10 8 0 15 -4 15 -10z m260 0 c0 -5 -4 -10 -10 -10
-5 0 -10 5 -10 10 0 6 5 10 10 10 6 0 10 -4 10 -10z m-4367 -7 c-7 -2 -19 -2
-25 0 -7 3 -2 5 12 5 14 0 19 -2 13 -5z m1982 -3 c-3 -5 -11 -10 -16 -10 -6 0
-7 5 -4 10 3 6 11 10 16 10 6 0 7 -4 4 -10z m1385 0 c0 -5 -5 -10 -11 -10 -5
0 -7 5 -4 10 3 6 8 10 11 10 2 0 4 -4 4 -10z m-1550 -10 c0 -5 -5 -10 -11 -10
-5 0 -7 5 -4 10 3 6 8 10 11 10 2 0 4 -4 4 -10z m2353 4 c11 -11 -3 -24 -18
-18 -8 4 -12 10 -9 15 6 11 18 12 27 3z m-2808 -13 c10 -17 -34 -34 -51 -21
-7 7 -11 16 -8 21 7 12 51 11 59 0z m2956 -14 c-13 -13 -26 -3 -16 12 3 6 11
8 17 5 6 -4 6 -10 -1 -17z m-41 -2 c64 -33 17 -68 -50 -39 -40 18 -51 38 -27
47 23 10 48 7 77 -8z m-950 1 c0 -11 -19 -15 -25 -6 -3 5 1 10 9 10 9 0 16 -2
16 -4z m-1920 -16 c0 -5 -9 -10 -21 -10 -11 0 -17 5 -14 10 3 6 13 10 21 10 8
0 14 -4 14 -10z m-110 -10 c0 -5 -7 -10 -15 -10 -8 0 -15 5 -15 10 0 6 7 10
15 10 8 0 15 -4 15 -10z m-505 -43 c54 -23 100 -48 103 -55 8 -26 -49 -25
-113 3 -51 21 -63 30 -60 46 2 11 0 17 -5 14 -5 -3 -14 4 -20 15 -6 11 -9 20
-7 20 2 0 48 -19 102 -43z m2480 33 c3 -5 -1 -10 -10 -10 -9 0 -13 5 -10 10 3
6 8 10 10 10 2 0 7 -4 10 -10z m-1815 -10 c0 -5 -4 -10 -9 -10 -6 0 -13 5 -16
10 -3 6 1 10 9 10 9 0 16 -4 16 -10z m375 -10 c3 -5 -1 -10 -10 -10 -14 0 -55
-26 -107 -69 -15 -13 -15 -16 8 -33 27 -22 31 -54 9 -85 -15 -21 -14 -23 12
-38 26 -15 16 -14 -23 1 -12 5 -15 2 -12 -12 5 -26 39 -24 182 15 101 27 136
27 136 2 0 -10 -9 -30 -20 -44 -28 -35 -25 -63 8 -82 23 -14 13 -13 -23 1 -5
2 -20 -12 -33 -32 -22 -34 -23 -37 -6 -55 21 -23 57 -24 114 -4 23 8 54 15 69
15 21 1 14 7 -34 30 -79 37 -65 38 18 1 38 -17 80 -46 104 -71 31 -34 44 -41
61 -36 13 4 19 12 16 18 -4 6 -2 8 3 5 6 -4 35 4 65 18 129 60 183 33 106 -52
-12 -12 -17 -27 -13 -34 6 -8 4 -10 -4 -4 -15 8 -66 -36 -86 -76 -11 -20 -11
-29 -2 -38 18 -18 35 -14 114 26 l74 37 -43 23 c-24 12 -39 22 -35 23 4 0 26
-9 47 -20 l40 -20 41 21 c65 33 118 4 89 -50 -8 -16 -6 -22 7 -31 15 -9 14 -9
-7 -5 -19 5 -32 0 -49 -19 l-23 -24 24 -15 c43 -28 62 -28 97 -3 l33 24 -29
17 c-15 9 -19 13 -8 10 11 -4 27 -9 35 -12 17 -4 215 143 215 160 0 6 -36 26
-80 45 -242 103 -446 195 -442 199 3 2 45 -14 95 -35 l90 -40 -5 39 c-4 30 -1
45 13 60 48 53 135 74 236 57 60 -10 77 -17 98 -41 35 -42 40 -59 25 -94 -18
-41 -81 -74 -157 -81 l-59 -5 78 -34 c43 -19 93 -41 111 -49 l32 -15 -27 -23
c-51 -41 -392 -296 -398 -296 -7 0 -1198 531 -1205 537 -3 3 4 11 15 19 11 8
28 21 38 29 9 8 20 15 22 15 5 0 90 63 125 93 8 6 22 17 31 22 9 6 35 24 58
42 23 17 48 34 54 37 9 3 8 8 -3 16 -12 10 -11 11 8 7 13 -3 31 2 45 14 25 21
33 23 42 9z m2403 -1 c-2 -6 -8 -10 -13 -10 -5 0 -11 4 -13 10 -2 6 4 11 13
11 9 0 15 -5 13 -11z m123 -2 c-1 -12 -15 -9 -19 4 -3 6 1 10 8 8 6 -3 11 -8
11 -12z m-3111 -1 c0 -11 -19 -15 -25 -6 -3 5 1 10 9 10 9 0 16 -2 16 -4z
m1807 -2 c-3 -3 -12 -4 -19 -1 -8 3 -5 6 6 6 11 1 17 -2 13 -5z m130 0 c-3 -3
-12 -4 -19 -1 -8 3 -5 6 6 6 11 1 17 -2 13 -5z m-1670 -10 c-3 -3 -12 -4 -19
-1 -8 3 -5 6 6 6 11 1 17 -2 13 -5z m373 -9 c14 -8 21 -14 15 -14 -5 0 -21 6
-35 14 -14 8 -20 14 -15 14 6 0 21 -6 35 -14z m1098 -7 c-82 -47 -68 -119 29
-154 23 -8 30 -13 18 -14 -28 0 -80 34 -101 65 -13 20 -15 33 -8 53 9 26 66
72 88 72 6 0 -5 -10 -26 -22z m278 -13 c43 -43 43 -69 0 -109 -39 -38 -95 -57
-162 -55 -47 2 -46 2 16 9 80 8 136 34 156 71 13 26 13 32 0 57 -8 16 -30 36
-48 45 -23 12 -27 17 -14 17 10 0 34 -16 52 -35z m1174 15 c0 -5 -9 -10 -20
-10 -11 0 -20 5 -20 10 0 6 9 10 20 10 11 0 20 -4 20 -10z m-3240 -10 c0 -5
-5 -10 -10 -10 -6 0 -6 -7 2 -19 6 -11 19 -17 27 -14 14 4 14 3 1 -5 -8 -6
-18 -8 -22 -6 -4 3 -8 0 -8 -6 0 -6 -11 -15 -25 -20 -14 -5 -25 -16 -25 -23 0
-7 -14 -23 -30 -36 l-30 -22 -70 27 c-39 15 -70 31 -70 35 0 9 67 49 81 49 6
0 22 9 36 20 35 27 63 27 32 0 -24 -20 -24 -20 -4 -36 21 -16 70 -13 89 6 11
11 -10 40 -30 40 -7 0 -16 5 -19 10 -4 7 2 9 18 5 14 -4 28 -2 31 4 9 14 26
14 26 1z m380 0 c0 -5 -4 -10 -10 -10 -5 0 -10 5 -10 10 0 6 5 10 10 10 6 0
10 -4 10 -10z m2610 0 c0 -5 -4 -10 -10 -10 -5 0 -10 5 -10 10 0 6 5 10 10 10
6 0 10 -4 10 -10z m-2230 -15 c14 -8 21 -14 15 -14 -5 0 -21 6 -35 14 -14 8
-20 14 -15 14 6 0 21 -6 35 -14z m-411 -16 c-7 -4 -17 -5 -22 -2 -5 3 -3 9 4
14 7 4 17 5 22 2 5 -3 3 -9 -4 -14z m1629 5 c12 -8 22 -20 22 -26 0 -21 -42
-68 -62 -68 -25 0 -19 21 11 36 38 19 44 30 26 48 -27 26 -90 21 -119 -10 -16
-18 -30 -25 -41 -20 -14 5 -15 9 -5 21 7 8 18 15 24 15 6 0 2 -7 -8 -15 -12
-9 -15 -15 -7 -15 8 0 24 11 37 25 27 30 87 34 122 9z m1322 12 c0 -11 -19
-15 -25 -6 -3 5 1 10 9 10 9 0 16 -2 16 -4z m-2860 -10 c0 -11 -19 -15 -25 -6
-3 5 1 10 9 10 9 0 16 -2 16 -4z m2507 -12 c-3 -3 -12 -4 -19 -1 -8 3 -5 6 6
6 11 1 17 -2 13 -5z m586 -1 c-7 -2 -19 -2 -25 0 -7 3 -2 5 12 5 14 0 19 -2
13 -5z m110 0 c-7 -2 -19 -2 -25 0 -7 3 -2 5 12 5 14 0 19 -2 13 -5z m-2793
-18 c14 -8 21 -14 15 -14 -5 0 -21 6 -35 14 -14 8 -20 14 -15 14 6 0 21 -6 35
-14z m2517 9 c-3 -3 -12 -4 -19 -1 -8 3 -5 6 6 6 11 1 17 -2 13 -5z m365 -26
c35 -24 46 -63 27 -97 -17 -30 -92 -71 -129 -70 -19 1 -16 3 14 10 88 21 134
76 102 124 -9 13 -33 34 -54 45 -25 14 -29 18 -12 14 14 -4 37 -15 52 -26z
m-299 -4 c-55 -43 -37 -106 41 -140 17 -7 25 -13 18 -14 -18 0 -52 18 -79 43
-24 21 -32 80 -13 92 6 4 8 11 5 16 -4 5 4 13 17 18 40 17 44 12 11 -15z
m-533 6 c0 -5 -4 -10 -10 -10 -5 0 -10 5 -10 10 0 6 5 10 10 10 6 0 10 -4 10
-10z m656 3 c-42 -7 -78 -33 -71 -52 5 -13 4 -14 -7 -3 -20 20 33 62 75 61
l32 -2 -29 -4z m-2636 -18 c14 -8 21 -14 15 -14 -5 0 -21 6 -35 14 -14 8 -20
14 -15 14 6 0 21 -6 35 -14z m2738 -10 c23 -9 42 -23 42 -30 0 -21 -50 -55
-81 -55 -15 0 -30 -4 -34 -10 -8 -13 -33 -1 -40 19 -3 10 -15 23 -28 29 -12 6
-16 11 -9 11 7 1 23 -10 36 -22 19 -20 30 -23 62 -18 39 6 84 29 84 44 0 4
-24 19 -52 32 -58 27 -48 27 20 0z m-2668 -20 c14 -8 21 -14 15 -14 -5 0 -21
6 -35 14 -14 8 -20 14 -15 14 6 0 21 -6 35 -14z m1867 9 c-3 -3 -12 -4 -19 -1
-8 3 -5 6 6 6 11 1 17 -2 13 -5z m-47 -34 c0 -5 -4 -10 -9 -10 -6 0 -13 5 -16
10 -3 6 1 10 9 10 9 0 16 -4 16 -10z m-1730 -15 c14 -8 21 -14 15 -14 -5 0
-21 6 -35 14 -14 8 -20 14 -15 14 6 0 21 -6 35 -14z m80 -35 c19 -11 31 -19
25 -19 -5 0 -26 8 -45 19 -19 11 -30 19 -25 19 6 0 26 -8 45 -19z m1365 8
c-69 -38 -85 -91 -39 -133 15 -14 31 -25 35 -25 5 0 9 -4 9 -10 0 -5 -7 -10
-15 -10 -8 0 -14 3 -13 8 2 4 -10 19 -25 34 -39 39 -36 78 8 117 20 17 41 31
48 31 7 0 3 -6 -8 -12z m246 -5 c12 -16 12 -17 -1 -7 -8 6 -22 14 -30 17 -13
5 -12 6 1 6 9 1 23 -7 30 -16z m44 -43 c9 -17 13 -40 10 -50 -7 -22 -61 -70
-78 -70 -7 0 3 9 21 20 46 28 58 59 38 99 -9 17 -14 31 -12 31 3 0 13 -14 21
-30z m-1575 5 c14 -8 21 -14 15 -14 -5 0 -21 6 -35 14 -14 8 -20 14 -15 14 6
0 21 -6 35 -14z m2313 -12 c-7 -2 -21 -2 -30 0 -10 3 -4 5 12 5 17 0 24 -2 18
-5z m-1015 -27 c-7 -8 -15 -12 -17 -11 -5 6 10 25 20 25 5 0 4 -6 -3 -14z
m222 10 c0 -2 -9 -6 -20 -9 -11 -3 -18 -1 -14 4 5 9 34 13 34 5z m-2575 -26
c3 -5 -1 -10 -9 -10 -9 0 -16 5 -16 10 0 6 4 10 9 10 6 0 13 -4 16 -10z m2455
-16 c0 -2 -7 -4 -15 -4 -8 0 -15 4 -15 10 0 5 7 7 15 4 8 -4 15 -8 15 -10z
m-2566 -5 c52 -10 65 -17 89 -47 35 -46 34 -67 -6 -107 -44 -44 -102 -59 -201
-52 -67 5 -82 9 -106 32 -70 67 -32 139 88 171 60 16 63 16 136 3z m1257 -76
c13 -16 12 -17 -3 -4 -17 13 -22 21 -14 21 2 0 10 -8 17 -17z m1149 -13 c0 -5
-7 -10 -16 -10 -8 0 -12 5 -9 10 3 6 10 10 16 10 5 0 9 -4 9 -10z m-1420 -30
c19 -11 31 -19 25 -19 -5 0 -26 8 -45 19 -19 11 -30 19 -25 19 6 0 26 -8 45
-19z m1370 -10 c0 -5 -4 -10 -10 -10 -5 0 -10 5 -10 10 0 6 5 10 10 10 6 0 10
-4 10 -10z m-540 -80 c0 -5 -4 -10 -9 -10 -6 0 -13 5 -16 10 -3 6 1 10 9 10 9
0 16 -4 16 -10z m253 -17 c-7 -2 -21 -2 -30 0 -10 3 -4 5 12 5 17 0 24 -2 18
-5z m70 0 c-7 -2 -19 -2 -25 0 -7 3 -2 5 12 5 14 0 19 -2 13 -5z m-263 -13 c0
-5 -4 -10 -9 -10 -6 0 -13 5 -16 10 -3 6 1 10 9 10 9 0 16 -4 16 -10z m365
-29 c39 -37 45 -73 17 -107 -18 -23 -81 -59 -88 -51 -3 2 9 10 26 17 35 15 70
54 70 80 0 26 -38 69 -74 85 -24 11 -26 13 -8 11 12 -1 38 -17 57 -35z m-285
12 c-62 -43 -67 -86 -14 -133 20 -17 33 -34 30 -37 -12 -12 -76 66 -76 92 0
35 18 69 43 82 35 17 44 15 17 -4z m101 -48 c-34 -25 -61 -49 -61 -55 0 -5 -5
-10 -11 -10 -6 0 -9 4 -7 10 4 11 120 99 132 100 4 0 -19 -20 -53 -45z m129 6
c0 -6 -27 -31 -61 -57 -53 -40 -63 -45 -82 -35 l-22 11 22 -6 c16 -4 38 7 78
37 30 23 55 45 55 50 0 5 2 9 5 9 3 0 5 -4 5 -9z m-127 -138 c-7 -2 -19 -2
-25 0 -7 3 -2 5 12 5 14 0 19 -2 13 -5z m80 0 c-7 -2 -21 -2 -30 0 -10 3 -4 5
12 5 17 0 24 -2 18 -5z m-213 -23 c0 -5 -2 -10 -4 -10 -3 0 -8 5 -11 10 -3 6
-1 10 4 10 6 0 11 -4 11 -10z"/>
<path d="M7001 4816 c8 -8 142 -56 146 -52 2 2 -28 15 -67 30 -69 25 -88 30
-79 22z"/>
<path d="M7195 4741 c22 -10 51 -21 65 -25 14 -3 7 2 -15 13 -22 10 -51 21
-65 25 -14 3 -7 -2 15 -13z"/>
<path d="M7300 4702 c8 -5 26 -13 40 -16 17 -5 20 -4 10 2 -8 5 -26 13 -40 16
-17 5 -20 4 -10 -2z"/>
<path d="M7380 4672 c8 -5 26 -13 40 -16 17 -5 20 -4 10 2 -8 5 -26 13 -40 16
-17 5 -20 4 -10 -2z"/>
<path d="M5522 4075 c0 -16 2 -22 5 -12 2 9 2 23 0 30 -3 6 -5 -1 -5 -18z"/>
<path d="M5549 4085 c-5 -26 -3 -114 3 -130 4 -11 7 14 7 58 1 42 -1 77 -4 77
-3 0 -5 -2 -6 -5z"/>
<path d="M5465 4070 c3 -5 8 -10 11 -10 2 0 4 5 4 10 0 6 -5 10 -11 10 -5 0
-7 -4 -4 -10z"/>
<path d="M5490 4060 c0 -5 5 -10 10 -10 6 0 10 5 10 10 0 6 -4 10 -10 10 -5 0
-10 -4 -10 -10z"/>
<path d="M5490 4030 c0 -5 5 -10 10 -10 6 0 10 5 10 10 0 6 -4 10 -10 10 -5 0
-10 -4 -10 -10z"/>
<path d="M5521 4024 c0 -11 3 -14 6 -6 3 7 2 16 -1 19 -3 4 -6 -2 -5 -13z"/>
<path d="M5465 4010 c3 -5 8 -10 11 -10 2 0 4 5 4 10 0 6 -5 10 -11 10 -5 0
-7 -4 -4 -10z"/>
<path d="M5490 4000 c0 -5 5 -10 10 -10 6 0 10 5 10 10 0 6 -4 10 -10 10 -5 0
-10 -4 -10 -10z"/>
<path d="M5465 3980 c3 -5 8 -10 11 -10 2 0 4 5 4 10 0 6 -5 10 -11 10 -5 0
-7 -4 -4 -10z"/>
<path d="M5410 3970 c0 -5 5 -10 11 -10 5 0 7 5 4 10 -3 6 -8 10 -11 10 -2 0
-4 -4 -4 -10z"/>
<path d="M5490 3970 c0 -5 5 -10 10 -10 6 0 10 5 10 10 0 6 -4 10 -10 10 -5 0
-10 -4 -10 -10z"/>
<path d="M5520 3945 c0 -14 4 -25 9 -25 5 0 9 11 9 25 0 14 -4 25 -9 25 -5 0
-9 -11 -9 -25z"/>
<path d="M5460 3950 c0 -5 5 -10 10 -10 6 0 10 5 10 10 0 6 -4 10 -10 10 -5 0
-10 -4 -10 -10z"/>
<path d="M5410 3940 c0 -5 5 -10 10 -10 6 0 10 5 10 10 0 6 -4 10 -10 10 -5 0
-10 -4 -10 -10z"/>
<path d="M5490 3940 c0 -5 5 -10 10 -10 6 0 10 5 10 10 0 6 -4 10 -10 10 -5 0
-10 -4 -10 -10z"/>
<path d="M5465 3920 c-3 -5 -1 -10 4 -10 6 0 11 5 11 10 0 6 -2 10 -4 10 -3 0
-8 -4 -11 -10z"/>
<path d="M5522 3865 c0 -25 4 -45 9 -45 4 0 7 20 6 45 -1 25 -5 45 -9 45 -4 0
-7 -20 -6 -45z"/>
<path d="M5465 3890 c-3 -5 -1 -10 4 -10 6 0 11 5 11 10 0 6 -2 10 -4 10 -3 0
-8 -4 -11 -10z"/>
<path d="M5465 3860 c3 -5 8 -10 11 -10 2 0 4 5 4 10 0 6 -5 10 -11 10 -5 0
-7 -4 -4 -10z"/>
<path d="M5465 3830 c-3 -5 -1 -10 4 -10 6 0 11 5 11 10 0 6 -2 10 -4 10 -3 0
-8 -4 -11 -10z"/>
<path d="M7006 3731 c-3 -5 5 -11 19 -13 20 -4 23 -3 14 8 -13 16 -25 18 -33
5z"/>
<path d="M7305 3311 c-6 -11 9 -23 19 -14 9 9 7 23 -3 23 -6 0 -12 -4 -16 -9z"/>
<path d="M4705 3754 c-13 -14 -14 -19 -4 -25 10 -6 9 -9 -4 -15 -25 -9 -22
-50 6 -59 19 -6 19 -8 5 -12 -23 -6 -22 -11 2 -51 21 -35 141 -98 167 -88 8 3
11 1 8 -4 -5 -9 1 -12 21 -9 4 0 10 -3 13 -8 3 -4 24 -14 46 -22 22 -7 58 -22
79 -32 22 -11 42 -19 45 -19 3 0 7 34 9 75 2 56 -1 75 -10 75 -10 0 -10 2 0 9
8 4 12 19 10 32 -3 21 -26 33 -178 96 -96 40 -180 73 -187 73 -6 0 -19 -7 -28
-16z m285 -184 c0 -5 -4 -10 -9 -10 -6 0 -13 5 -16 10 -3 6 1 10 9 10 9 0 16
-4 16 -10z"/>
<path d="M5485 3360 c-49 -33 -92 -65 -94 -71 -2 -6 0 -10 5 -7 44 20 64 33
64 40 0 4 4 8 9 8 10 0 120 65 135 80 7 7 3 10 -9 10 -11 0 -60 -27 -110 -60z"/>
<path d="M4920 3040 c0 -5 5 -10 10 -10 6 0 10 5 10 10 0 6 -4 10 -10 10 -5 0
-10 -4 -10 -10z"/>
<path d="M4865 3020 c-3 -6 1 -13 10 -16 19 -8 30 0 20 15 -8 14 -22 14 -30 1z"/>
<path d="M4820 2996 c0 -9 5 -16 10 -16 6 0 10 4 10 9 0 6 -4 13 -10 16 -5 3
-10 -1 -10 -9z"/>
<path d="M5050 2853 c1 -14 50 -44 60 -38 16 10 11 19 -17 33 -31 14 -43 15
-43 5z"/>
<path d="M5190 2801 c0 -13 81 -51 108 -51 38 0 24 14 -36 38 -64 25 -72 26
-72 13z"/>
<path d="M5140 2740 c14 -11 32 -20 41 -20 8 0 20 -5 26 -11 12 -12 43 -6 43
9 0 8 -106 42 -127 42 -5 0 3 -9 17 -20z"/>
<path d="M4045 3080 c3 -5 10 -10 16 -10 5 0 9 5 9 10 0 6 -7 10 -16 10 -8 0
-12 -4 -9 -10z"/>
<path d="M8490 1988 l-25 -10 32 -16 c28 -13 37 -13 57 -3 14 8 30 10 38 5 7
-5 23 -7 36 -5 15 1 22 -3 22 -13 0 -9 7 -16 15 -16 18 0 20 -16 4 -26 -14 -9
50 -37 68 -30 7 3 13 18 13 34 0 33 -30 64 -79 81 -42 14 -147 13 -181 -1z"/>
<path d="M8426 1948 c-9 -12 -16 -28 -16 -34 0 -27 51 -72 95 -84 54 -15 150
-9 190 13 28 14 28 14 7 26 -17 9 -32 9 -65 0 -23 -7 -46 -11 -52 -9 -5 2 -21
4 -35 5 -39 4 -41 4 -36 14 3 5 -4 11 -15 14 -14 4 -18 10 -13 19 16 25 12 39
-12 49 -33 12 -30 12 -48 -13z"/>
<path d="M8565 1950 c-3 -5 1 -10 10 -10 9 0 13 5 10 10 -3 6 -8 10 -10 10 -2
0 -7 -4 -10 -10z"/>
<path d="M8605 1933 c-11 -7 -27 -13 -37 -13 -24 0 -23 -17 2 -25 22 -7 53 11
44 26 -3 5 -1 9 5 9 17 0 18 -25 2 -37 -14 -10 -13 -12 6 -10 12 1 20 3 18 6
-3 2 -1 9 3 15 5 6 2 18 -8 27 -14 14 -20 14 -35 2z"/>
<path d="M8520 1926 c0 -8 -6 -17 -12 -19 -8 -3 -6 -6 5 -6 9 -1 17 -8 17 -16
0 -9 6 -12 16 -8 15 5 15 7 0 15 -11 6 -15 16 -11 29 4 11 2 19 -4 19 -6 0
-11 -6 -11 -14z"/>
<path d="M2957 1846 c-59 -16 -109 -61 -105 -95 2 -13 16 -33 31 -45 24 -18
43 -21 115 -21 74 0 93 4 125 23 72 45 60 111 -24 136 -62 19 -78 19 -142 2z
m101 -43 c45 -20 82 -40 82 -45 0 -5 -21 -21 -46 -37 l-45 -29 -77 35 c-42 19
-81 38 -85 43 -7 6 66 68 83 70 3 0 42 -16 88 -37z"/>
<path d="M2927 1796 l-28 -23 70 -32 c74 -34 89 -34 131 -1 l25 20 -58 0 c-54
0 -59 2 -75 30 -20 36 -28 36 -65 6z"/>
<path d="M3001 1799 c13 -25 29 -31 66 -27 26 3 24 5 -25 25 -51 21 -52 21
-41 2z"/>
<path d="M4158 1761 c-179 -57 -199 -195 -39 -270 51 -24 67 -26 176 -26 105
0 127 3 173 24 58 26 122 89 102 101 -9 5 -9 9 -1 14 33 21 -10 101 -73 133
-87 45 -238 56 -338 24z m254 -64 c22 -9 43 -28 53 -46 14 -28 14 -34 0 -62
-37 -71 -198 -103 -290 -59 -55 26 -72 58 -55 99 32 77 185 112 292 68z m148
-116 c0 -10 -30 -24 -37 -17 -3 3 -2 9 2 15 8 13 35 15 35 2z"/>
<path d="M4210 1684 c-79 -34 -102 -86 -54 -123 59 -46 157 -51 239 -11 113
55 54 151 -92 150 -32 -1 -74 -8 -93 -16z m178 -57 c-8 -55 -153 -94 -178 -48
-15 30 -13 38 22 62 64 46 163 37 156 -14z"/>
<path d="M4247 1636 c-41 -33 -33 -60 18 -64 48 -3 105 28 105 57 0 38 -80 43
-123 7z m43 -10 c0 -8 8 -17 18 -19 10 -3 6 -5 -10 -6 -22 -1 -28 4 -28 19 0
11 5 20 10 20 6 0 10 -6 10 -14z"/>
<path d="M9152 1695 c-7 -8 -9 -15 -4 -15 5 0 15 7 22 15 16 19 -1 19 -18 0z"/>
<path d="M9285 1650 c-3 -6 1 -7 9 -4 18 7 21 14 7 14 -6 0 -13 -4 -16 -10z"/>
<path d="M9264 1616 c-10 -8 -17 -17 -14 -19 3 -3 16 3 29 14 27 22 15 26 -15
5z"/>
<path d="M7202 970 c-161 -24 -138 -150 28 -150 92 0 142 35 138 97 -3 40 -17
45 -53 17 -57 -43 -92 -22 -37 23 l27 22 -25 -1 c-14 0 -49 -4 -78 -8z"/>
<path d="M6620 540 c8 -5 20 -10 25 -10 6 0 3 5 -5 10 -8 5 -19 10 -25 10 -5
0 -3 -5 5 -10z"/>
<path d="M6700 506 c0 -2 7 -7 16 -10 8 -3 12 -2 9 4 -6 10 -25 14 -25 6z"/>
<path d="M6853 475 c0 -8 4 -12 9 -9 5 3 6 10 3 15 -9 13 -12 11 -12 -6z"/>
<path d="M6770 475 c0 -7 30 -13 34 -7 3 4 -4 9 -15 9 -10 1 -19 0 -19 -2z"/>
<path d="M6820 450 c8 -5 20 -10 25 -10 6 0 3 5 -5 10 -8 5 -19 10 -25 10 -5
0 -3 -5 5 -10z"/>
<path d="M6860 436 c0 -2 7 -7 16 -10 8 -3 12 -2 9 4 -6 10 -25 14 -25 6z"/>
<path d="M6924 405 c36 -19 45 -19 20 0 -10 8 -26 14 -34 15 -8 0 -2 -7 14
-15z"/>
<path d="M7005 390 c-3 -5 -12 -7 -20 -3 -8 3 -15 3 -15 0 0 -13 30 -14 40 -1
7 8 10 14 7 14 -3 0 -8 -4 -12 -10z"/>
<path d="M5376 1081 c-17 -19 -16 -20 33 -46 48 -24 52 -25 76 -9 29 19 33 44
6 44 -10 0 -24 7 -31 15 -17 21 -64 19 -84 -4z"/>
<path d="M7525 1060 c-3 -5 1 -10 9 -10 8 0 18 5 21 10 3 6 -1 10 -9 10 -8 0
-18 -4 -21 -10z"/>
<path d="M5555 854 c-91 -23 -135 -56 -135 -102 0 -56 64 -92 163 -91 127 1
200 58 171 134 -14 36 -140 73 -199 59z m65 -62 c59 -16 65 -20 71 -49 7 -34
-4 -53 -32 -53 -29 0 -194 78 -194 92 0 11 34 22 80 26 6 1 39 -7 75 -16z"/>
<path d="M5480 782 c0 -13 169 -85 184 -79 21 8 17 56 -6 68 -23 13 -178 22
-178 11z"/>
</g>
</svg>
